<?xml version="1.0" standalone="no"?>
<!DOCTYPE svg PUBLIC "-//W3C//DTD SVG 20010904//EN"
 "http://www.w3.org/TR/2001/REC-SVG-20010904/DTD/svg10.dtd">
<svg version="1.0" xmlns="http://www.w3.org/2000/svg"
 width="327.000000pt" height="327.000000pt" viewBox="0 0 327.000000 327.000000"
 preserveAspectRatio="xMidYMid meet">
<metadata>
Created by potrace 1.14, written by Peter Selinger 2001-2017
</metadata>
<g transform="translate(0.000000,327.000000) scale(0.100000,-0.100000)"
fill="#000000" stroke="none">
<path d="M1595 3255 c-44 -7 -97 -15 -117 -19 -137 -22 -349 -115 -512 -223
-333 -222 -518 -571 -561 -1063 -12 -131 -8 -124 -88 -165 -39 -21 -97 -56
-127 -78 -64 -47 -192 -168 -185 -175 2 -3 69 -5 147 -6 201 -2 250 -26 263
-132 52 -417 193 -734 445 -998 219 -229 527 -375 800 -377 151 -1 506 144
830 339 194 117 315 210 363 282 16 24 17 24 32 5 138 -172 150 -284 37 -356
-58 -37 -93 -37 -132 -1 -32 29 -42 64 -29 100 10 26 8 26 -58 7 -64 -19 -118
-75 -128 -133 -11 -66 10 -120 69 -178 95 -93 196 -106 353 -46 113 43 212
122 248 198 27 56 31 173 10 275 -20 101 -57 182 -162 359 -117 199 -148 288
-152 442 -2 92 8 107 116 170 144 84 201 167 208 302 2 39 1 74 -1 78 -3 4
-38 -15 -78 -42 -92 -62 -181 -104 -311 -146 -90 -30 -109 -33 -190 -29 -63 2
-129 14 -220 39 -257 71 -434 55 -539 -50 -69 -69 -81 -191 -30 -300 29 -61
68 -95 137 -118 100 -34 212 -9 261 58 30 40 36 69 25 111 -11 40 -16 42 -61
16 -53 -30 -83 -33 -109 -12 -22 18 -22 19 -6 44 9 15 27 32 39 38 34 18 154
13 248 -11 118 -30 224 -61 232 -69 5 -4 10 -36 13 -71 3 -36 7 -96 10 -135 3
-38 14 -103 25 -143 12 -50 16 -82 10 -102 -31 -107 -235 -287 -427 -377 -67
-32 -88 -37 -153 -37 -64 -1 -84 4 -135 29 -237 119 -416 476 -464 928 -9 80
-7 273 3 337 4 25 9 59 12 75 2 17 7 41 9 55 3 14 7 34 9 45 12 60 52 203 86
306 120 359 283 602 415 617 104 11 176 -70 330 -373 45 -89 101 -189 123
-222 115 -170 250 -213 449 -143 203 71 298 208 258 375 -17 72 -40 111 -87
145 -70 51 -183 71 -253 45 -27 -11 -85 -54 -85 -64 0 -5 20 -16 44 -25 93
-36 136 -103 115 -179 -24 -89 -139 -93 -226 -9 -38 37 -52 64 -123 232 -89
209 -158 326 -245 413 -84 83 -154 113 -335 143 -76 12 -367 12 -445 -1z
m-554 -532 c3 1 -1 -4 -7 -12 -9 -10 -16 -11 -30 -2 -17 11 -16 11 6 5 24 -6
24 -6 8 13 -10 11 -18 23 -18 28 0 4 8 -2 19 -13 10 -12 20 -21 22 -19z m29
33 c0 -3 -4 -8 -10 -11 -5 -3 -10 -1 -10 4 0 6 5 11 10 11 6 0 10 -2 10 -4z
m-89 -30 c-10 -12 -8 -17 8 -26 12 -6 21 -15 21 -20 0 -6 -11 0 -25 12 -19 16
-22 24 -14 35 6 7 14 13 16 13 3 0 0 -6 -6 -14z m-15 -55 c-4 -5 -14 -7 -24
-4 -15 6 -15 4 2 -15 25 -28 13 -29 -13 0 -24 25 -18 42 10 28 20 -11 25 -2 9
18 -5 7 -3 6 6 -2 9 -8 13 -19 10 -25z m22 -22 c-1 -22 -3 -27 -10 -16 -4 8
-5 22 -2 31 9 24 13 19 12 -15z m558 19 c4 -6 3 -8 -4 -4 -5 3 -12 0 -15 -6
-2 -7 -8 -9 -13 -5 -5 4 -2 12 6 17 19 12 17 12 26 -2z m3 -29 c-13 -10 -25
-16 -28 -14 -2 3 -12 0 -22 -5 -21 -12 -52 -2 -42 13 4 7 0 8 -13 3 -16 -6
-17 -5 -6 6 11 11 16 10 27 -5 11 -16 17 -17 37 -6 13 7 24 12 25 11 10 -6 33
13 34 27 0 12 2 13 6 2 3 -8 -5 -22 -18 -32z m-54 2 c-6 -5 -25 10 -25 20 0 5
6 4 14 -3 8 -7 12 -15 11 -17z m-76 2 c-25 -32 -40 -45 -45 -41 -4 5 45 58 54
58 2 0 -2 -8 -9 -17z m-532 -25 c-3 -8 -6 -5 -6 6 -1 11 2 17 5 13 3 -3 4 -12
1 -19z m43 12 c8 -5 11 -10 5 -10 -5 0 -17 5 -25 10 -8 5 -10 10 -5 10 6 0 17
-5 25 -10z m617 -18 c-10 -10 -14 -23 -10 -27 5 -5 1 -4 -9 3 -14 11 -19 9
-32 -9 l-15 -23 -21 27 c-12 15 -26 25 -31 22 -5 -4 -9 -1 -9 4 0 17 14 13 38
-10 20 -18 24 -19 38 -4 9 8 19 13 24 10 4 -3 13 2 20 10 7 8 15 15 18 15 3 0
-2 -8 -11 -18z m-686 -19 c-12 -20 -14 -14 -5 12 4 9 9 14 11 11 3 -2 0 -13
-6 -23z m69 11 c0 -2 -7 -4 -15 -4 -8 0 -15 4 -15 10 0 5 7 7 15 4 8 -4 15 -8
15 -10z m40 5 c0 -5 -3 -8 -7 -6 -11 6 -43 -30 -35 -39 4 -4 -5 1 -20 11 -16
9 -28 14 -28 9 0 -5 12 -18 28 -31 15 -12 21 -22 15 -23 -7 0 -13 5 -13 12 0
6 -3 8 -7 5 -9 -10 -35 31 -28 43 4 7 13 7 25 0 16 -8 23 -6 37 10 19 22 33
26 33 9z m430 -63 c0 -3 -5 -6 -12 -6 -6 0 -9 3 -5 6 3 3 -3 15 -14 27 -10 11
-19 25 -19 30 0 5 11 -5 25 -21 14 -17 25 -33 25 -36z m10 49 c0 -8 -4 -15
-10 -15 -5 0 -7 7 -4 15 4 8 8 15 10 15 2 0 4 -7 4 -15z m-57 -53 c-4 -10 -3
-14 2 -10 4 4 15 -2 25 -14 11 -14 21 -18 30 -13 11 7 9 10 -6 16 -16 6 -16 8
-2 8 25 1 33 -18 13 -33 -14 -10 -22 -8 -47 16 -16 15 -27 32 -24 37 4 5 2 12
-4 16 -5 3 -10 12 -10 18 0 7 7 4 15 -6 7 -11 11 -26 8 -35z m90 29 c-2 -6 2
-11 7 -11 6 0 10 -5 10 -11 0 -5 -4 -7 -10 -4 -17 11 -11 -7 7 -20 15 -12 14
-15 -13 -38 -16 -15 -33 -26 -39 -27 -5 0 5 12 23 26 28 22 31 28 18 38 -9 6
-14 20 -12 31 2 11 -2 24 -8 28 -7 6 -6 7 4 4 8 -2 14 -10 13 -16z m-567 -24
c5 -7 1 -6 -10 3 -16 13 -21 11 -48 -20 l-30 -35 25 36 c15 20 23 40 19 44 -4
4 3 3 15 -4 12 -6 25 -17 29 -24z m77 13 c-3 -12 -8 -19 -11 -16 -5 6 5 36 12
36 2 0 2 -9 -1 -20z m362 2 c14 -10 17 -32 5 -32 -5 0 -10 6 -10 14 0 8 -6 17
-12 19 -7 3 -8 6 -3 6 6 0 15 -3 20 -7z m102 -14 c-3 -8 -6 -5 -6 6 -1 11 2
17 5 13 3 -3 4 -12 1 -19z m103 8 c0 -3 -4 -8 -10 -11 -5 -3 -10 -1 -10 4 0 6
5 11 10 11 6 0 10 -2 10 -4z m-14 -33 c-6 -6 -36 9 -36 18 0 5 9 4 20 -3 10
-7 18 -14 16 -15z m-653 10 c-7 -2 -13 -10 -13 -18 0 -7 -7 -18 -15 -25 -10
-9 -15 -9 -15 -1 0 6 4 11 9 11 5 0 11 9 14 20 3 11 11 20 19 19 10 0 10 -2 1
-6z m70 -15 c9 0 17 -3 17 -8 0 -5 -12 -6 -27 -4 -26 5 -27 5 -9 -14 14 -16
15 -22 4 -28 -7 -4 -10 -4 -6 0 4 5 -2 17 -13 29 -24 26 -25 42 -1 32 9 -4 25
-7 35 -7z m382 2 c4 -6 -1 -7 -11 -3 -12 4 -15 3 -10 -5 5 -8 2 -10 -9 -5 -13
5 -14 7 -3 14 17 11 26 11 33 -1z m-441 -15 c3 -8 1 -15 -4 -15 -6 0 -10 7
-10 15 0 8 2 15 4 15 2 0 6 -7 10 -15z m484 -3 c2 -7 -1 -12 -8 -12 -6 0 -9 4
-6 9 4 5 1 12 -4 14 -6 3 -5 4 2 3 6 -1 14 -8 16 -14z m-75 -14 c4 -10 7 -10
18 0 7 6 17 12 21 12 5 0 -9 -18 -32 -40 -22 -21 -40 -45 -40 -52 0 -7 -6 -4
-12 7 -14 22 -20 51 -10 40 4 -4 8 -11 8 -16 1 -5 2 -12 3 -15 0 -4 10 5 22
20 17 21 19 29 9 41 -8 9 -8 15 -2 15 6 0 12 -6 15 -12z m107 -12 c10 -13 10
-17 3 -12 -8 4 -13 2 -13 -6 0 -10 -2 -10 -9 1 -5 8 -7 20 -4 28 3 8 6 13 7
11 1 -2 8 -12 16 -22z m-130 -7 c0 -5 -4 -9 -8 -9 -5 0 -9 7 -9 15 0 8 4 12 9
9 4 -3 8 -9 8 -15z m223 0 c-8 -8 -13 -7 -18 2 -5 8 -4 10 3 5 7 -4 12 -2 12
5 0 7 3 9 7 6 4 -4 2 -12 -4 -18z m-585 -7 c2 -6 -1 -12 -8 -12 -6 0 -8 5 -5
10 3 6 2 10 -3 10 -22 0 -36 -69 -16 -77 10 -4 8 -10 -9 -23 -18 -15 -20 -21
-9 -31 9 -10 12 -10 12 -1 0 7 8 20 19 31 18 18 19 18 19 -5 0 -14 -4 -27 -9
-30 -5 -3 -6 3 -3 13 4 13 0 11 -14 -6 l-19 -24 -30 33 c-26 29 -32 31 -52 20
-19 -9 -21 -14 -10 -21 10 -6 8 -8 -8 -7 -25 2 -20 24 8 33 22 7 25 21 7 28
-7 2 -10 8 -6 12 4 4 20 -8 37 -27 27 -30 31 -32 46 -17 15 15 14 17 -9 33
-14 9 -26 12 -26 7 0 -6 8 -15 18 -20 9 -6 12 -11 4 -11 -7 0 -20 13 -31 30
-10 16 -22 27 -27 22 -4 -4 -3 0 4 9 6 9 10 18 7 21 -11 10 34 1 48 -10 14
-12 27 -7 27 10 0 5 -4 6 -10 3 -5 -3 -10 -2 -10 4 0 14 53 8 58 -7z m456 3
c3 -8 1 -15 -4 -15 -6 0 -10 6 -10 13 -1 6 -19 -8 -40 -32 -22 -24 -40 -39
-40 -34 0 11 69 83 80 83 4 0 10 -7 14 -15z m113 -36 c1 -22 1 -22 -4 -1 -4
20 -23 32 -23 14 0 -5 -10 -19 -21 -31 -18 -19 -19 -25 -8 -32 9 -5 17 0 26
19 11 23 12 24 7 3 -3 -13 -7 -31 -9 -40 -2 -11 -11 -15 -30 -14 -26 2 -27 1
-10 -17 10 -11 14 -20 9 -20 -5 0 -3 -4 5 -9 9 -6 10 -11 2 -15 -6 -4 -11 -2
-11 3 0 19 -3 25 -22 45 -23 25 -23 40 0 31 9 -4 26 -9 37 -12 l20 -4 -20 15
c-11 8 -26 20 -32 26 -9 8 -13 8 -13 0 0 -6 -11 2 -24 17 -27 31 -26 47 1 17
28 -29 50 -28 74 6 26 35 43 34 46 -1z m-545 12 c-8 -4 -13 -11 -13 -15 3 -18
-1 -22 -19 -23 -11 -1 -20 2 -20 8 0 5 3 8 8 8 16 -3 32 1 31 9 -3 15 1 22 14
22 9 0 9 -2 -1 -9z m495 3 c-3 -3 -12 -4 -19 -1 -8 3 -5 6 6 6 11 1 17 -2 13
-5z m-27 -14 c18 -12 2 -12 -25 0 -13 6 -15 9 -5 9 8 0 22 -4 30 -9z m-146
-49 c-1 -1 -12 3 -23 11 -12 8 -18 17 -15 21 6 5 43 -25 38 -32z m81 25 c12
-11 10 -15 -11 -26 -27 -15 -45 -6 -24 13 10 9 11 9 6 0 -4 -7 -3 -13 2 -13
16 0 22 13 11 27 -15 17 -2 17 16 -1z m-109 -39 c13 -1 37 -27 25 -27 -5 0
-14 6 -18 14 -4 8 -12 15 -18 15 -5 0 -11 5 -13 13 -3 11 -2 11 6 0 5 -8 13
-14 18 -15z m54 3 c0 -5 -8 -10 -17 -10 -15 0 -16 2 -3 10 19 12 20 12 20 0z
m80 -1 c0 -5 -4 -7 -10 -4 -5 3 -10 1 -10 -6 0 -7 -3 -10 -6 -6 -8 7 4 27 17
27 5 0 9 -5 9 -11z m-555 -18 c-3 -5 2 -12 10 -14 12 -4 12 -5 -1 -3 -19 1
-32 26 -14 26 6 0 9 -4 5 -9z m403 -9 c2 -7 -1 -12 -8 -12 -6 0 -9 4 -6 9 4 5
1 12 -4 14 -6 3 -5 4 2 3 6 -1 14 -8 16 -14z m112 6 c0 -4 -5 -8 -11 -8 -5 0
-7 -5 -4 -11 4 -6 -2 -5 -14 2 -11 8 -16 16 -10 19 14 9 39 8 39 -2z m52 -28
c2 -8 9 -21 16 -28 14 -16 15 -22 3 -41 -8 -12 -13 -11 -29 9 -12 15 -23 20
-32 15 -11 -7 -9 -10 6 -16 16 -6 16 -8 2 -8 -25 -1 -32 19 -12 33 15 12 20
10 35 -8 10 -11 20 -18 24 -14 4 4 0 14 -9 23 -9 9 -14 20 -11 25 3 5 1 11 -5
15 -5 3 -10 11 -10 18 0 15 18 -3 22 -23z m-132 -6 c0 -17 -16 -19 -26 -2 -5
7 -3 8 6 3 10 -6 12 -4 7 9 -4 10 -3 15 3 11 6 -3 10 -13 10 -21z m104 9 c4
-10 4 -14 0 -10 -4 4 -19 -6 -34 -21 -14 -16 -42 -39 -61 -51 -32 -22 -31 -21
6 13 l40 36 -24 20 c-13 11 -19 20 -13 20 6 0 18 -8 28 -17 16 -16 18 -16 33
4 20 27 17 27 25 6z m-580 -9 c3 -8 2 -13 -2 -11 -10 7 -32 -19 -24 -27 3 -4
-1 -4 -10 -1 -14 6 -13 9 6 30 11 12 22 23 22 24 1 1 5 -6 8 -15z m26 5 c0 -5
5 -7 12 -3 7 4 8 3 4 -4 -10 -16 -23 -15 -30 3 -3 8 -1 15 4 15 6 0 10 -5 10
-11z m399 -20 c-7 -14 -6 -21 4 -25 13 -5 -20 -46 -67 -84 -18 -14 -18 -14 -5
7 7 12 15 20 18 18 2 -3 11 4 18 15 12 17 12 24 2 38 -11 14 -11 15 1 5 8 -7
19 -13 25 -13 5 1 -1 10 -15 22 -18 15 -20 19 -6 15 15 -6 17 -3 13 12 -3 14
-1 18 9 14 10 -4 11 -10 3 -24z m-339 11 c8 -5 11 -10 5 -10 -5 0 -17 5 -25
10 -8 5 -10 10 -5 10 6 0 17 -5 25 -10z m49 -7 c0 -11 -3 -13 -6 -5 -2 6 -10
9 -15 6 -7 -4 -8 -2 -4 4 11 18 26 14 25 -5z m-56 -23 c9 -11 13 -20 7 -20 -5
0 -13 7 -18 16 -8 14 -12 13 -28 -9 -17 -21 -22 -23 -38 -11 -20 14 -13 34 12
33 14 0 14 -2 -2 -8 -16 -6 -17 -9 -6 -16 9 -6 19 -1 29 13 20 27 23 27 44 2z
m387 4 c0 -2 -7 -4 -15 -4 -8 0 -15 4 -15 10 0 5 7 7 15 4 8 -4 15 -8 15 -10z
m40 5 c0 -5 -4 -7 -10 -4 -5 3 -10 -2 -10 -11 0 -10 -3 -15 -6 -11 -9 9 3 37
16 37 5 0 10 -5 10 -11z m-393 -5 c-3 -3 -12 -4 -19 -1 -8 3 -5 6 6 6 11 1 17
-2 13 -5z m25 -11 c-10 -4 -10 -8 0 -21 12 -14 11 -14 -9 -1 -16 9 -19 16 -10
21 7 4 17 7 22 7 6 0 4 -3 -3 -6z m316 -32 c-8 -12 -18 -18 -21 -14 -4 3 -7 1
-7 -5 0 -7 -6 -12 -12 -12 -7 0 1 13 17 28 34 32 44 33 23 3z m-488 8 c0 -5 4
-8 9 -5 5 3 20 -3 32 -14 13 -11 18 -19 12 -20 -7 0 -13 5 -13 11 0 5 -4 7
-10 4 -5 -3 -10 0 -11 7 0 7 -5 3 -11 -9 -6 -13 -15 -23 -21 -23 -5 0 -4 7 3
15 10 12 10 18 0 30 -9 10 -9 15 -1 15 6 0 11 -5 11 -11z m104 -4 c6 -17 -2
-45 -14 -45 -15 0 -22 19 -15 40 8 24 21 26 29 5z m46 -5 c13 -9 13 -11 0 -20
-8 -5 -19 -10 -25 -10 -5 0 -3 5 5 10 13 9 13 11 0 20 -8 5 -10 10 -5 10 6 0
17 -5 25 -10z m427 -9 c0 -11 -4 -18 -7 -16 -4 2 -13 -5 -20 -16 -8 -10 -19
-19 -24 -19 -5 0 1 11 14 25 26 27 12 35 -15 9 -9 -9 -18 -14 -22 -11 -5 6 55
47 69 47 4 0 6 -9 5 -19z m-606 -14 c-10 -9 -11 -8 -5 6 3 10 9 15 12 12 3 -3
0 -11 -7 -18z m626 1 c-3 -8 -6 -5 -6 6 -1 11 2 17 5 13 3 -3 4 -12 1 -19z
m33 18 c0 -3 -4 -8 -10 -11 -5 -3 -10 -1 -10 4 0 6 5 11 10 11 6 0 10 -2 10
-4z m-9 -45 c-12 -12 -21 -16 -21 -10 0 12 32 40 38 34 2 -2 -6 -13 -17 -24z
m-597 -4 c-11 -6 -25 -17 -32 -24 -8 -7 -17 -11 -22 -8 -5 3 -10 2 -13 -2 -2
-5 -2 -1 1 7 2 8 5 20 5 27 0 7 4 10 8 7 5 -2 5 -12 2 -21 -6 -14 -2 -14 19 3
14 10 24 22 21 26 -2 4 3 5 13 1 15 -5 14 -7 -2 -16z m141 13 c-3 -5 -1 -10 6
-10 7 0 10 -2 7 -5 -3 -3 -13 -2 -22 1 -14 5 -15 9 -4 15 17 11 20 11 13 -1z
m325 6 c0 -2 -7 -7 -16 -10 -8 -3 -12 -2 -9 4 6 10 25 14 25 6z m-415 -17 c11
-16 1 -19 -13 -3 -7 8 -8 14 -3 14 5 0 13 -5 16 -11z m36 -11 l-20 -21 24 -25
c14 -14 28 -22 31 -19 3 3 -3 14 -14 25 -20 20 -20 21 -2 19 10 -1 17 -4 15
-8 -3 -3 4 -15 15 -27 20 -21 20 -21 -8 -18 -15 1 -32 -2 -39 -7 -7 -5 -20 -7
-30 -4 -14 4 -14 5 4 6 31 1 36 15 13 36 -18 16 -18 19 -3 41 8 13 19 24 25
24 5 0 0 -10 -11 -22z m331 15 c-6 -2 -10 -9 -6 -14 3 -5 0 -9 -5 -9 -12 0
-14 13 -4 23 3 4 11 7 17 6 6 0 5 -3 -2 -6z m138 -3 c-8 -5 -19 -10 -25 -10
-5 0 -3 5 5 10 8 5 20 10 25 10 6 0 3 -5 -5 -10z m82 3 c-6 -2 -9 -10 -6 -15
4 -6 2 -8 -3 -5 -6 4 -21 -6 -34 -22 -26 -31 -67 -56 -77 -47 -3 3 0 6 6 6 7
0 33 20 59 45 25 25 51 45 57 44 6 0 6 -3 -2 -6z m-150 -20 c21 -18 23 -33 6
-33 -6 0 -8 3 -5 6 4 4 -3 15 -15 25 -11 11 -17 19 -13 19 5 0 17 -7 27 -17z
m-452 3 c0 -2 -7 -6 -15 -10 -8 -3 -15 -1 -15 4 0 6 7 10 15 10 8 0 15 -2 15
-4z m87 -2 c-3 -3 -12 -4 -19 -1 -8 3 -5 6 6 6 11 1 17 -2 13 -5z m287 -18 c7
3 16 -2 19 -10 4 -9 2 -16 -3 -16 -6 0 -10 5 -10 12 0 6 -3 8 -7 5 -8 -9 -33
12 -33 27 0 6 5 3 11 -6 5 -9 16 -15 23 -12z m43 13 c6 -6 9 -18 6 -27 -4 -9
-2 -13 4 -9 5 3 17 -3 26 -14 9 -10 13 -19 7 -19 -5 0 -13 7 -18 16 -5 9 -13
15 -18 15 -5 -1 -9 5 -9 12 0 6 -7 17 -15 24 -8 7 -10 13 -4 13 5 0 15 -5 21
-11z m113 1 c0 -5 -5 -10 -11 -10 -5 0 -7 5 -4 10 3 6 8 10 11 10 2 0 4 -4 4
-10z m-575 -27 l-7 -28 24 23 c36 33 42 27 8 -8 -17 -17 -30 -36 -30 -41 0 -6
-8 -1 -18 11 -13 15 -23 20 -32 15 -11 -7 -9 -10 6 -16 17 -7 17 -8 1 -8 -10
-1 -16 -5 -12 -11 3 -5 12 -7 20 -3 17 6 21 -22 5 -32 -6 -4 -7 1 -3 11 4 11
3 15 -5 10 -24 -15 -38 42 -14 60 13 9 19 8 34 -10 20 -24 24 -15 7 16 -8 15
-8 19 0 14 6 -4 11 0 11 8 0 9 3 16 6 16 3 0 3 -12 -1 -27z m158 7 c3 -11 1
-18 -4 -14 -5 3 -9 12 -9 20 0 20 7 17 13 -6z m381 5 c-4 -8 -8 -15 -10 -15
-2 0 -4 7 -4 15 0 8 4 15 10 15 5 0 7 -7 4 -15z m-143 -19 c18 -15 24 -26 16
-29 -6 -2 -12 -12 -12 -22 0 -10 -6 -19 -13 -21 -7 -1 -8 0 -2 3 5 2 10 9 10
14 0 6 -4 7 -10 4 -5 -3 -10 -2 -10 3 0 6 8 13 18 17 15 6 13 10 -13 31 -16
13 -26 24 -21 24 4 0 21 -11 37 -24z m169 10 c0 -3 -4 -8 -10 -11 -5 -3 -10
-1 -10 4 0 6 5 11 10 11 6 0 10 -2 10 -4z m-512 -26 c-7 -11 -18 -20 -25 -20
-9 0 -7 6 5 19 23 26 35 26 20 1z m582 16 c0 -3 -4 -8 -10 -11 -5 -3 -10 -1
-10 4 0 6 5 11 10 11 6 0 10 -2 10 -4z m-262 -15 c11 -7 11 -9 -1 -14 -9 -3
-14 -14 -13 -24 2 -10 1 -12 -1 -5 -3 7 -10 9 -16 5 -7 -3 -4 3 6 14 14 16 15
22 5 26 -7 3 -8 6 -3 6 6 0 16 -3 23 -8z m159 3 c-3 -3 -12 -4 -19 -1 -8 3 -5
6 6 6 11 1 17 -2 13 -5z m71 -37 c-9 -17 -8 -19 8 -13 15 5 16 4 7 -5 -15 -15
-34 -3 -26 19 6 15 5 15 -10 3 -22 -18 -22 -6 1 17 21 22 35 7 20 -21z m-143
22 c11 -16 1 -19 -13 -3 -7 8 -8 14 -3 14 5 0 13 -5 16 -11z m-15 -13 c0 -2
-7 -6 -15 -10 -8 -3 -15 -1 -15 4 0 6 7 10 15 10 8 0 15 -2 15 -4z m47 -33
c-11 -10 -26 8 -20 23 5 15 7 14 15 -1 6 -9 7 -19 5 -22z m-482 -2 c-16 -32
-35 -49 -35 -32 0 6 5 11 11 11 5 0 7 5 4 10 -3 6 -1 10 4 10 6 0 11 7 11 15
0 8 5 15 10 15 6 0 4 -13 -5 -29z m141 12 c16 -22 17 -33 3 -33 -5 0 -7 5 -4
10 3 6 2 10 -3 10 -6 0 -12 7 -16 15 -7 20 4 19 20 -2z m386 -8 c-9 -11 -17
-21 -18 -23 -1 -2 -4 4 -8 13 -3 9 -2 13 4 10 6 -3 10 -2 10 4 0 5 -6 11 -12
14 -7 2 -1 4 14 3 25 -1 26 -2 10 -21z m-442 3 c0 -4 -9 -8 -20 -8 -11 0 -20
4 -20 8 0 4 9 8 20 8 11 0 20 -4 20 -8z m371 -15 c23 -47 22 -49 -4 -15 l-25
33 -25 -31 c-21 -25 -26 -27 -24 -10 1 10 3 17 5 15 2 -2 13 5 25 16 27 25 31
24 48 -8z m-523 -19 c-4 -3 -12 5 -18 18 -12 22 -12 22 6 6 10 -10 15 -20 12
-24z m406 20 c3 -8 2 -12 -4 -9 -6 3 -10 10 -10 16 0 14 7 11 14 -7z m236 -6
c0 -5 4 -7 9 -3 5 3 13 0 17 -7 4 -7 4 -10 -1 -6 -4 4 -27 -6 -51 -22 -23 -17
-46 -30 -51 -30 -4 0 7 10 24 21 18 12 30 25 27 31 -4 6 -10 5 -15 -3 -12 -19
-11 -2 1 21 10 19 40 18 40 -2z m-533 -14 c3 -19 3 -19 -5 0 -7 15 -11 16 -16
7 -5 -8 0 -21 15 -35 21 -20 26 -21 45 -9 22 14 58 8 48 -8 -3 -5 2 -9 10 -9
9 0 16 5 16 10 0 6 5 10 10 10 19 0 10 -19 -12 -26 -15 -4 -25 -1 -34 11 -10
13 -17 14 -33 6 -13 -7 -18 -17 -14 -27 3 -9 -12 1 -33 22 -32 31 -37 42 -29
57 12 21 29 17 32 -9z m81 6 c7 -12 17 -18 22 -15 6 3 10 1 10 -4 0 -18 -18
-13 -40 11 -17 18 -20 19 -20 5 0 -9 -2 -17 -4 -17 -2 0 -11 -3 -20 -6 -9 -3
-16 -1 -16 6 0 6 4 9 9 5 6 -3 15 4 21 15 14 25 22 25 38 0z m239 -12 c-3 -8
-6 -5 -6 6 -1 11 2 17 5 13 3 -3 4 -12 1 -19z m133 7 c0 -8 -2 -15 -4 -15 -2
0 -6 7 -10 15 -3 8 -1 15 4 15 6 0 10 -7 10 -15z m-46 -20 l22 -25 22 20 c12
12 22 16 22 11 0 -6 -9 -15 -21 -21 -16 -9 -18 -14 -8 -26 14 -18 2 -19 -14
-1 -49 54 -59 67 -52 67 4 0 17 -11 29 -25z m-534 5 c0 -5 -5 -10 -11 -10 -5
0 -7 5 -4 10 3 6 8 10 11 10 2 0 4 -4 4 -10z m35 -9 c-8 -14 -25 -14 -25 0 0
5 5 7 10 4 6 -3 10 -1 10 6 0 7 3 10 6 6 3 -3 3 -10 -1 -16z m441 -6 c6 8 15
15 19 15 5 0 0 -9 -10 -20 -10 -11 -13 -20 -7 -20 6 0 14 5 17 10 3 6 12 10
18 10 7 0 0 -8 -15 -18 -16 -9 -28 -20 -28 -25 0 -4 5 -5 10 -2 6 3 10 1 10
-5 0 -7 -6 -10 -12 -7 -7 2 -12 12 -12 21 1 9 -9 24 -22 33 -13 8 -24 19 -24
25 0 5 10 -1 22 -12 20 -18 24 -19 34 -5z m194 -6 c-13 -8 -13 -10 0 -19 11
-7 7 -8 -16 -6 -22 3 -35 -1 -45 -15 -7 -10 -18 -19 -23 -19 -5 0 1 11 14 25
13 14 25 23 28 21 2 -3 13 4 25 14 11 11 23 17 26 14 3 -3 -1 -9 -9 -15z
m-580 1 c8 -5 11 -10 5 -10 -5 0 -2 -5 8 -11 9 -5 17 -15 17 -21 0 -6 -12 2
-26 17 -23 25 -28 26 -50 15 -13 -8 -24 -17 -24 -22 0 -4 -6 -8 -12 -8 -15 1
42 50 57 50 6 0 17 -5 25 -10z m360 -33 c0 -4 -4 -5 -10 -2 -18 11 -11 -10 9
-27 11 -9 23 -13 27 -10 4 4 4 1 0 -6 -7 -11 -11 -10 -25 2 -17 15 -31 12 -31
-6 0 -5 6 -6 13 -2 12 8 -5 -17 -30 -43 -15 -17 -20 -16 -27 3 -3 9 -2 12 5 9
13 -8 41 14 33 27 -3 5 -2 14 3 21 14 20 9 45 -12 62 -15 13 -12 12 13 -1 17
-10 32 -22 32 -27z m-450 23 c0 -5 -5 -10 -11 -10 -5 0 -7 5 -4 10 3 6 8 10
11 10 2 0 4 -4 4 -10z m70 -3 c0 -8 -38 -47 -45 -47 -5 0 2 11 15 25 22 24 30
29 30 22z m125 -18 c11 -16 1 -19 -13 -3 -7 8 -8 14 -3 14 5 0 13 -5 16 -11z
m215 7 c0 -2 -7 -7 -16 -10 -8 -3 -12 -2 -9 4 6 10 25 14 25 6z m108 -10 c-7
-8 -15 -12 -17 -11 -5 6 10 25 20 25 5 0 4 -6 -3 -14z m-441 -15 c0 -11 -7
-17 -14 -14 -9 4 -9 8 0 19 16 17 16 17 14 -5z m180 12 c-4 -3 0 -15 10 -25 9
-10 12 -18 7 -18 -12 0 -34 36 -27 44 4 3 9 6 11 6 3 0 2 -3 -1 -7z m333 -57
c0 -3 -5 -6 -12 -6 -6 0 -9 3 -5 6 3 3 -3 15 -14 27 -10 11 -19 25 -19 30 0 5
11 -5 25 -21 14 -17 25 -33 25 -36z m-493 32 c-3 -8 -6 -5 -6 6 -1 11 2 17 5
13 3 -3 4 -12 1 -19z m67 -20 c8 -5 7 -8 -1 -8 -7 0 -17 9 -23 19 -14 27 -12
41 2 16 6 -11 16 -23 22 -27z m16 27 c0 -8 -4 -15 -10 -15 -5 0 -7 7 -4 15 4
8 8 15 10 15 2 0 4 -7 4 -15z m98 -63 c-9 -4 -57 46 -50 52 3 3 0 6 -6 6 -7 0
-12 5 -12 12 0 6 17 -6 38 -28 20 -21 34 -40 30 -42z m126 60 c-6 -4 -10 -15
-8 -24 2 -19 -11 -24 -21 -8 -3 6 -1 10 6 10 7 0 9 3 6 7 -4 3 -2 12 5 20 6 7
13 11 17 8 3 -3 1 -9 -5 -13z m130 3 c3 -8 1 -15 -4 -15 -6 0 -10 7 -10 15 0
8 2 15 4 15 2 0 6 -7 10 -15z m126 5 c0 -9 -13 -13 -26 -7 -3 1 -12 -9 -19
-23 -10 -17 -14 -20 -15 -9 0 19 24 42 33 32 4 -3 7 -1 7 5 0 7 5 12 10 12 6
0 10 -4 10 -10z m-620 -32 c0 7 4 12 10 12 5 0 7 -7 4 -15 -8 -20 -16 -19 -41
4 -12 11 -24 17 -29 13 -4 -4 -4 -1 0 6 6 11 13 8 32 -9 13 -12 24 -17 24 -11z
m83 -21 c-8 -5 -17 -6 -20 -3 -4 3 -1 6 5 6 7 0 12 5 12 11 0 5 -4 7 -10 4 -6
-3 -7 1 -4 10 6 14 8 14 19 -2 11 -15 11 -19 -2 -26z m81 26 c4 -10 4 -14 0
-11 -3 4 -16 -5 -29 -20 -22 -26 -22 -27 -4 -40 21 -14 25 -32 8 -32 -5 0 -8
4 -5 9 3 5 -1 12 -10 15 -9 4 -14 1 -12 -5 4 -11 -61 -83 -68 -76 -2 2 9 17
24 33 38 40 45 61 24 73 -15 9 -9 13 14 10 8 -1 44 42 44 53 0 14 7 9 14 -9z
m310 1 c3 -8 2 -12 -4 -9 -6 3 -10 2 -10 -3 0 -6 -7 -13 -15 -16 -13 -5 -12
-1 2 19 22 29 20 29 27 9z m-489 -42 c-3 -3 -16 5 -28 17 l-22 23 28 -17 c15
-10 25 -20 22 -23z m65 31 c0 -5 -4 -14 -9 -21 -7 -11 -9 -11 -14 1 -3 8 -3
18 0 21 9 8 23 7 23 -1z m457 1 c-3 -3 6 -17 20 -30 14 -13 21 -24 15 -24 -6
0 -16 8 -21 18 -6 9 -11 13 -11 7 0 -11 -20 15 -20 28 0 4 5 7 12 7 6 0 9 -3
5 -6z m89 -28 c-15 -24 -15 -26 5 -39 20 -15 20 -15 -5 -40 -14 -15 -26 -22
-26 -17 0 5 8 16 17 26 16 16 16 18 -5 34 -17 14 -19 19 -7 24 9 3 12 12 8 22
-4 12 -3 15 5 10 7 -4 12 -2 12 5 0 7 3 9 6 6 4 -4 -1 -18 -10 -31z m-386 -15
c0 -16 -41 -71 -52 -71 -8 1 -5 7 6 15 19 14 19 15 -2 34 -12 10 -22 22 -22
26 0 5 11 -1 23 -13 l24 -22 0 30 c0 24 -3 27 -14 19 -8 -8 -13 -8 -13 -1 0
18 24 20 38 4 6 -9 12 -18 12 -21z m214 13 c5 -14 4 -15 -9 -4 -17 14 -19 20
-6 20 5 0 12 -7 15 -16z m106 -55 c0 -5 -5 -9 -12 -9 -6 0 -9 3 -5 6 11 11
-40 57 -54 49 -9 -6 -8 -10 7 -16 16 -6 16 -8 2 -8 -25 -1 -33 18 -13 33 15
11 22 9 46 -17 16 -17 29 -34 29 -38z m97 44 c0 -16 -2 -22 -4 -15 -3 6 -9 9
-15 6 -5 -3 -4 3 4 15 7 12 13 21 14 21 1 0 1 -12 1 -27z m-609 5 c-2 -6 -10
-13 -16 -14 -7 -1 -8 0 -2 3 5 2 8 9 4 14 -3 5 0 9 6 9 7 0 10 -5 8 -12z m549
6 c-3 -3 -12 -4 -19 -1 -8 3 -5 6 6 6 11 1 17 -2 13 -5z m-607 -8 c0 -2 -7 -7
-16 -10 -8 -3 -12 -2 -9 4 6 10 25 14 25 6z m93 -15 c-9 -11 -21 -17 -26 -14
-6 4 -8 -1 -4 -10 3 -10 2 -17 -4 -17 -6 0 -9 7 -7 16 2 8 7 14 11 12 5 -2 13
5 18 15 6 9 14 17 19 17 6 0 2 -9 -7 -19z m347 9 c0 -5 -8 -10 -17 -10 -15 0
-16 2 -3 10 19 12 20 12 20 0z m-436 -19 c-10 -10 -21 -16 -24 -14 -3 3 4 11
14 19 28 20 33 17 10 -5z m275 -1 c-13 -10 -20 -19 -15 -20 12 0 -24 -40 -37
-40 -6 0 -1 8 9 18 10 9 20 24 22 32 4 15 21 30 36 30 4 0 -2 -9 -15 -20z
m-149 0 c0 -5 -7 -7 -15 -4 -8 4 -15 8 -15 10 0 2 7 4 15 4 8 0 15 -4 15 -10z
m250 -5 c11 -13 10 -14 -4 -9 -9 3 -16 10 -16 15 0 13 6 11 20 -6z m97 -2 c4
-10 15 -25 25 -34 10 -9 18 -20 18 -24 0 -5 -11 2 -25 15 -26 25 -36 12 -10
-14 20 -20 19 -32 -1 -15 -15 12 -16 11 -10 -11 6 -21 4 -20 -13 8 -21 32 -35
40 -46 23 -3 -5 3 -12 12 -14 16 -4 16 -5 1 -6 -25 -2 -33 18 -12 33 15 12 21
10 37 -8 19 -22 19 -22 1 32 -5 14 -4 15 5 2 9 -13 11 -13 11 2 0 9 -6 19 -12
21 -10 4 -10 6 0 6 7 1 16 -7 19 -16z m-442 -13 c-2 -11 -9 -28 -15 -37 -10
-16 -11 -16 -4 2 3 11 6 28 6 38 0 9 3 17 8 17 5 0 7 -9 5 -20z m285 -5 c14
-19 14 -19 -2 -6 -10 7 -18 18 -18 24 0 6 1 8 3 6 1 -2 9 -13 17 -24z m97 11
c0 -19 -44 -39 -53 -25 -3 6 -3 13 0 16 3 4 6 1 6 -5 0 -6 7 -9 15 -6 8 4 15
12 15 20 0 8 4 14 8 14 5 0 9 -6 9 -14z m190 6 c8 -5 8 -12 -2 -25 -11 -16
-13 -16 -19 -2 -3 9 -2 13 4 10 6 -3 10 -2 10 4 0 5 -6 12 -12 14 -7 3 -8 6
-3 6 6 0 15 -3 22 -7z m-606 -29 c-12 -20 -14 -14 -5 12 4 9 9 14 11 11 3 -2
0 -13 -6 -23z m109 18 c0 -13 -29 -35 -37 -28 -3 4 2 9 11 13 9 3 13 10 10 15
-3 5 0 9 5 9 6 0 11 -4 11 -9z m184 -6 c3 -8 1 -15 -4 -15 -6 0 -10 7 -10 15
0 8 2 15 4 15 2 0 6 -7 10 -15z m230 0 c-4 -8 -8 -15 -10 -15 -2 0 -4 7 -4 15
0 8 4 15 10 15 5 0 7 -7 4 -15z m36 -21 c0 -2 -7 -4 -15 -4 -8 0 -15 4 -15 10
0 5 7 7 15 4 8 -4 15 -8 15 -10z m-506 -9 c-4 -8 -8 -15 -10 -15 -2 0 -4 7 -4
15 0 8 4 15 10 15 5 0 7 -7 4 -15z m121 6 c-3 -5 2 -12 10 -14 12 -4 12 -5 -1
-3 -19 1 -32 26 -14 26 6 0 9 -4 5 -9z m402 -13 c-3 -8 -6 -5 -6 6 -1 11 2 17
5 13 3 -3 4 -12 1 -19z m80 7 c0 -8 -4 -12 -9 -9 -5 3 -6 10 -3 15 9 13 12 11
12 -6z m-483 -34 c-5 -6 -34 20 -34 30 0 5 8 1 18 -8 10 -10 17 -20 16 -22z
m116 20 c7 -11 18 -17 24 -14 6 4 2 -3 -8 -15 -11 -12 -16 -22 -11 -22 4 0 2
-6 -4 -13 -6 -8 -9 -17 -6 -20 3 -4 2 -5 -2 -2 -4 3 -13 -5 -21 -17 -10 -18
-12 -19 -6 -3 4 11 6 28 6 37 0 10 8 23 20 29 20 11 20 11 -3 35 -12 13 -18
24 -13 24 5 0 16 -9 24 -19z m40 10 c0 -5 -9 -7 -20 -4 -11 3 -20 7 -20 9 0 2
9 4 20 4 11 0 20 -4 20 -9z m30 5 c0 -3 -4 -8 -10 -11 -5 -3 -10 -1 -10 4 0 6
5 11 10 11 6 0 10 -2 10 -4z m-280 -10 c0 -3 -4 -8 -10 -11 -5 -3 -10 -1 -10
4 0 6 5 11 10 11 6 0 10 -2 10 -4z m300 -11 c-7 -8 -18 -15 -24 -15 -6 0 -2 7
8 15 25 19 32 19 16 0z m180 3 c0 -6 -3 -9 -6 -5 -3 3 -15 -3 -27 -14 -11 -10
-25 -19 -29 -19 -11 0 44 49 55 50 4 0 7 -5 7 -12z m28 -12 c-10 -7 -15 -16
-11 -19 3 -4 1 -8 -5 -8 -21 -3 -27 -4 -40 -13 -7 -4 -16 -6 -19 -3 -2 3 5 10
16 17 12 6 21 8 21 5 0 -4 10 5 22 18 13 14 25 23 28 20 3 -2 -3 -10 -12 -17z
m-453 4 c3 -5 1 -10 -4 -10 -6 0 -11 5 -11 10 0 6 2 10 4 10 3 0 8 -4 11 -10z
m95 6 c0 -3 -4 -8 -10 -11 -5 -3 -10 -1 -10 4 0 6 5 11 10 11 6 0 10 -2 10 -4z
m35 -10 c12 -11 10 -15 -11 -26 -27 -15 -45 -6 -24 13 10 9 11 9 6 0 -4 -7 -3
-13 2 -13 16 0 22 13 11 27 -15 17 -2 17 16 -1z m384 -2 c4 3 8 -1 8 -9 0 -18
-14 -20 -19 -3 -3 8 -14 3 -32 -14 -18 -17 -26 -30 -21 -39 6 -9 10 -8 16 7 6
16 8 16 8 2 1 -25 -18 -33 -33 -13 -11 16 -8 23 23 52 20 18 37 29 39 23 2 -5
7 -8 11 -6z m-445 -10 c3 -8 2 -12 -4 -9 -6 3 -10 10 -10 16 0 14 7 11 14 -7z
m184 -13 c-7 -12 -16 -21 -21 -21 -4 0 0 11 9 25 20 30 31 26 12 -4z m68 8 c6
-11 -26 -53 -34 -45 -2 3 3 13 12 22 9 9 14 19 11 22 -3 4 -10 1 -14 -7 -7
-10 -9 -10 -14 1 -6 16 29 22 39 7z m-46 -19 c0 -5 -5 -10 -11 -10 -5 0 -7 5
-4 10 3 6 8 10 11 10 2 0 4 -4 4 -10z m-191 -17 c9 -16 12 -16 21 -3 11 17 13
10 4 -14 -5 -12 -9 -13 -24 -4 -10 7 -16 16 -13 22 4 5 -1 7 -11 3 -10 -4 -15
-3 -11 3 9 15 23 12 34 -7z m277 8 c-4 -5 -1 -12 4 -14 6 -3 5 -4 -2 -3 -15 3
-23 26 -8 26 6 0 9 -4 6 -9z m154 -1 c12 -8 12 -10 1 -10 -11 0 -11 -3 -1 -15
9 -10 9 -15 1 -15 -6 0 -11 5 -11 11 0 5 -4 8 -8 5 -4 -2 -9 4 -9 15 -2 21 5
23 27 9z m-163 -46 c-7 -7 24 -44 36 -44 4 0 5 5 2 10 -3 6 -1 10 4 10 6 0 11
-5 11 -12 0 -6 3 -9 6 -5 7 6 17 -3 44 -37 9 -12 10 -17 3 -12 -7 4 -13 3 -13
-2 0 -19 14 -21 32 -5 10 9 18 12 18 7 0 -5 4 -2 10 6 5 8 13 11 17 6 7 -8 -2
-15 -24 -19 -12 -2 -43 -31 -43 -40 0 -4 9 -3 19 3 15 7 22 7 27 -2 4 -7 4
-10 -1 -6 -4 4 -20 -1 -35 -12 -16 -11 -32 -20 -37 -20 -4 0 -1 5 7 10 16 10
20 39 7 57 -5 7 -6 16 -3 21 3 6 -1 15 -9 22 -18 15 -64 20 -71 8 -3 -5 -12
-7 -19 -4 -8 3 -19 -2 -26 -10 -10 -13 -8 -14 14 -10 15 3 27 0 27 -5 0 -5 -5
-9 -11 -9 -5 0 -7 -4 -4 -10 3 -5 -7 -2 -23 7 -31 18 -30 20 12 53 12 9 17 10
12 3 -4 -7 -3 -13 2 -13 21 0 21 15 0 38 -13 14 -17 22 -10 18 6 -4 12 -3 12
3 0 18 -18 21 -31 4 -11 -13 -11 -17 -1 -20 6 -3 12 -9 12 -15 0 -6 -6 -6 -15
2 -19 16 -19 21 2 47 17 21 17 21 31 1 8 -10 12 -22 9 -24z m58 36 c-3 -5 -2
-10 3 -10 5 0 14 -11 20 -25 7 -15 8 -25 2 -25 -6 0 -10 6 -10 14 0 8 -9 21
-21 29 -15 11 -17 16 -7 20 19 8 20 8 13 -3z m-135 -15 c9 -10 9 -15 1 -15 -6
0 -11 5 -11 10 0 6 -5 10 -11 10 -6 0 -8 -9 -4 -22 5 -20 4 -21 -5 -5 -20 31
7 50 30 22z m-193 -31 c0 -8 -4 -14 -9 -14 -4 0 -8 6 -8 14 0 8 -7 16 -15 20
-8 3 -15 0 -15 -6 0 -6 -3 -9 -6 -5 -3 3 -3 10 0 16 9 14 53 -6 53 -25z m303
15 c0 -5 4 -8 9 -4 5 3 12 2 15 -3 2 -4 -4 -8 -14 -9 -10 -1 -21 5 -24 13 -3
8 -1 14 4 14 6 0 10 -5 10 -11z m123 -13 c18 -14 17 -15 -3 -21 -12 -4 -24 -4
-27 -1 -4 3 1 6 11 6 9 0 14 5 11 10 -4 6 -11 8 -16 5 -5 -4 -9 -1 -9 4 0 15
11 13 33 -3z m-475 -20 c-15 -13 -24 -27 -20 -30 3 -4 -2 -4 -12 0 -18 7 -18
7 0 17 11 6 25 17 32 24 7 7 16 13 20 13 4 0 -5 -11 -20 -24z m252 14 c0 -5
-5 -10 -11 -10 -5 0 -7 5 -4 10 3 6 8 10 11 10 2 0 4 -4 4 -10z m-290 -14 c0
-2 -7 -7 -16 -10 -8 -3 -12 -2 -9 4 6 10 25 14 25 6z m275 -14 c-3 -3 -11 0
-18 7 -9 10 -8 11 6 5 10 -3 15 -9 12 -12z m-194 -14 c11 -11 19 -26 19 -32 0
-6 5 -4 10 4 7 12 9 10 7 -7 0 -12 -4 -20 -8 -17 -4 2 -9 1 -12 -3 -2 -5 -2
-2 -1 4 2 7 -8 26 -22 43 -14 16 -23 30 -19 30 4 0 16 -10 26 -22z m37 13 c11
-7 10 -9 -3 -14 -9 -4 -13 -3 -10 2 3 5 -3 12 -12 14 -13 3 -14 5 -3 6 8 0 21
-3 28 -8z m177 -11 c-10 -11 -23 -20 -28 -20 -13 0 24 39 37 39 5 1 1 -8 -9
-19z m183 0 c7 -11 10 -20 7 -20 -3 0 -14 9 -25 20 -12 12 -15 20 -7 20 7 0
18 -9 25 -20z m32 0 c0 -5 -2 -10 -4 -10 -3 0 -8 5 -11 10 -3 6 -1 10 4 10 6
0 11 -4 11 -10z m-527 -9 c4 -1 7 -6 7 -12 0 -8 -5 -8 -15 1 -12 10 -15 10
-15 -4 0 -9 -4 -16 -9 -16 -5 0 -8 -11 -5 -24 2 -14 -1 -28 -6 -31 -12 -7 -40
12 -40 27 0 5 7 2 16 -7 9 -9 19 -13 22 -10 4 3 0 10 -8 15 -9 6 -10 10 -3 10
6 0 10 9 8 20 -3 13 0 18 7 14 7 -5 9 -2 5 8 -4 11 -1 15 11 13 9 -2 20 -4 25
-4z m72 -4 c11 -12 8 -17 -16 -31 -16 -9 -29 -15 -29 -12 0 2 -3 13 -6 23 -5
14 -4 15 4 4 6 -8 17 -11 27 -7 14 5 15 9 5 21 -15 19 -3 20 15 2z m335 -1 c0
-3 -4 -8 -10 -11 -5 -3 -10 -1 -10 4 0 6 5 11 10 11 6 0 10 -2 10 -4z m30 -11
c5 3 7 -3 6 -12 -2 -10 2 -22 8 -26 7 -6 6 -7 -4 -4 -8 2 -14 10 -12 16 1 6
-2 11 -8 11 -5 0 -10 8 -9 18 0 10 3 12 6 4 2 -6 8 -10 13 -7z m-94 -42 c16
-16 18 -16 35 6 l19 23 21 -26 c11 -14 25 -24 30 -21 5 4 9 1 9 -4 0 -17 -14
-13 -39 10 l-22 21 -41 -41 c-22 -23 -43 -40 -46 -37 -2 3 6 14 19 25 23 19
24 19 5 40 -24 26 -36 27 -29 1 3 -11 9 -17 14 -14 5 3 9 0 9 -5 0 -13 -17
-15 -24 -3 -3 5 -7 20 -10 35 -4 24 -2 26 14 17 10 -5 26 -18 36 -27z m-331
10 c11 -15 9 -21 -18 -40 -17 -13 -36 -23 -41 -23 -6 0 4 9 22 20 33 20 40 34
22 45 -5 3 -10 -2 -10 -11 0 -10 -3 -15 -6 -11 -8 7 2 37 12 37 4 0 12 -8 19
-17z m85 6 c0 -5 -4 -7 -10 -4 -18 11 -10 -10 10 -28 22 -18 26 -37 9 -37 -5
0 -8 4 -5 9 3 5 0 14 -8 20 -11 9 -18 6 -32 -16 -19 -28 -44 -41 -44 -23 0 6
7 10 15 10 13 0 37 32 41 55 3 22 4 25 14 25 6 0 10 -5 10 -11z m447 -5 c-3
-4 -2 -16 4 -28 10 -20 9 -20 -5 -2 -14 17 -13 36 1 36 4 0 3 -3 0 -6z m-487
-14 c0 -5 -5 -10 -11 -10 -5 0 -7 5 -4 10 3 6 8 10 11 10 2 0 4 -4 4 -10z
m-136 -36 l34 -36 38 26 c21 14 43 26 49 26 5 -1 -1 -7 -14 -14 -24 -13 -36
-52 -19 -62 4 -3 8 -13 7 -22 0 -12 -3 -10 -10 7 -9 23 -10 23 -30 5 -16 -15
-19 -15 -14 -2 4 9 13 19 21 22 8 3 14 10 14 16 0 7 -6 8 -19 0 -11 -5 -22
-10 -24 -10 -6 0 -38 31 -61 58 -31 36 -9 25 28 -14z m496 6 c8 -5 11 -10 5
-10 -5 0 1 -7 13 -16 21 -14 24 -14 48 5 15 12 34 21 43 21 9 -1 2 -7 -15 -14
-38 -17 -50 -34 -35 -49 8 -8 11 -7 11 4 0 9 11 21 25 27 15 7 25 8 25 2 0 -6
-6 -10 -14 -10 -7 0 -20 -10 -28 -21 -14 -21 -14 -21 -56 20 -35 35 -45 40
-62 31 -12 -7 -17 -16 -13 -27 4 -10 2 -14 -4 -10 -6 4 -14 1 -16 -5 -4 -10
-6 -10 -6 0 -1 14 43 62 56 62 4 0 15 -5 23 -10z m-520 -30 c0 -5 -2 -10 -4
-10 -3 0 -8 5 -11 10 -3 6 -1 10 4 10 6 0 11 -4 11 -10z m204 -15 c14 -21 14
-24 1 -19 -8 4 -15 13 -15 22 0 13 -2 14 -12 3 -11 -10 -7 -17 17 -38 17 -14
23 -22 15 -18 -8 5 -23 15 -32 23 -15 13 -20 13 -35 1 -9 -8 -14 -9 -10 -2 4
6 4 13 0 16 -5 2 -2 2 5 1 7 -2 18 5 24 16 16 26 22 25 42 -5z m302 7 c1 -7 0
-8 -3 -2 -2 5 -9 8 -14 4 -5 -3 -9 0 -9 6 0 15 23 7 26 -8z m-456 -39 c0 -3
-9 2 -20 12 -11 10 -20 13 -20 7 0 -7 -5 -12 -10 -12 -6 0 -6 7 1 19 12 18 12
18 30 0 11 -11 19 -22 19 -26z m505 -4 c9 -16 11 -29 5 -29 -5 0 -10 7 -10 15
0 8 -5 15 -11 15 -5 0 -7 5 -4 10 3 6 1 10 -4 10 -6 0 -11 5 -11 11 0 17 19 0
35 -32z m-84 -2 c-13 -12 -20 -16 -16 -8 6 11 4 13 -9 8 -11 -4 -15 -3 -11 4
4 6 13 8 20 5 7 -2 16 2 19 11 4 9 9 13 13 9 4 -4 -4 -17 -16 -29z m47 -2 c-3
-3 -9 2 -12 12 -6 14 -5 15 5 6 7 -7 10 -15 7 -18z m119 19 c-3 -3 -12 -4 -19
-1 -8 3 -5 6 6 6 11 1 17 -2 13 -5z m-607 -26 c0 -5 0 -12 0 -18 0 -5 -8 -10
-17 -10 -15 0 -14 2 3 16 16 13 16 15 2 10 -10 -3 -20 -1 -22 3 -3 5 3 8 14 7
11 0 20 -4 20 -8z m65 3 c-3 -5 5 -17 17 -25 l22 -16 -22 -16 c-12 -8 -19 -20
-16 -26 4 -6 10 -5 15 3 5 8 9 10 9 4 0 -5 -4 -16 -9 -23 -7 -11 -9 -11 -14 2
-4 10 -12 13 -24 9 -11 -4 -7 3 11 20 26 24 27 28 12 42 -14 15 -14 35 0 35 3
0 3 -4 -1 -9z m88 -5 c18 -14 24 -32 6 -21 -6 4 -9 1 -8 -6 1 -8 -1 -22 -6
-33 -5 -12 -3 -21 6 -28 11 -8 10 -9 -4 -4 -10 3 -21 6 -23 6 -3 0 1 10 8 23
17 32 17 57 -1 67 -9 5 -11 9 -6 9 6 0 18 -6 28 -13z m301 -17 c-20 -20 -54
-18 -54 3 0 6 7 5 15 -2 13 -11 19 -10 33 8 9 11 19 19 21 16 3 -2 -4 -14 -15
-25z m156 19 c0 -3 -9 -6 -20 -5 -11 1 -20 5 -20 9 0 3 9 6 20 5 11 -1 20 -5
20 -9z m-480 -14 c0 -2 -7 -4 -15 -4 -8 0 -15 4 -15 10 0 5 7 7 15 4 8 -4 15
-8 15 -10z m-86 -9 c6 -18 -2 -45 -15 -45 -14 0 -11 18 4 23 6 2 9 8 5 12 -11
12 -39 -15 -36 -34 2 -9 12 -21 23 -28 16 -10 17 -12 4 -13 -19 0 -42 24 -32
33 3 4 2 7 -4 7 -5 0 -10 7 -10 15 0 8 4 12 8 9 5 -3 14 4 21 16 15 24 24 25
32 5z m491 -9 c14 -2 28 1 31 5 3 5 13 9 22 8 12 0 10 -3 -7 -10 -23 -9 -23
-10 -5 -30 15 -16 15 -19 2 -14 -9 4 -19 13 -22 21 -3 8 -11 14 -17 14 -7 0
-5 -10 6 -26 9 -15 12 -23 6 -20 -6 4 -11 3 -11 -2 0 -16 13 -22 27 -11 8 7
13 8 13 1 0 -5 -7 -12 -15 -16 -8 -3 -15 -10 -15 -16 0 -6 12 -4 30 5 17 9 30
12 30 8 0 -5 -16 -16 -34 -25 l-34 -17 3 25 c1 13 -2 27 -7 30 -5 3 -7 11 -5
18 3 6 -1 20 -9 31 -8 10 -14 15 -14 11 0 -4 -7 -1 -15 8 -19 19 -20 32 0 16
8 -6 26 -13 40 -14z m101 12 c4 -7 3 -8 -4 -4 -7 4 -12 0 -12 -10 0 -10 -3
-15 -6 -11 -7 6 2 37 10 37 3 0 8 -5 12 -12z m-506 -18 c0 -5 -5 -10 -11 -10
-5 0 -7 5 -4 10 3 6 8 10 11 10 2 0 4 -4 4 -10z m382 -34 c3 2 5 -3 5 -11 0
-8 -4 -15 -9 -15 -4 0 -8 5 -8 11 0 5 -5 7 -12 3 -6 -4 -8 -3 -4 4 3 6 -1 17
-9 25 -8 9 -15 19 -15 24 0 4 11 -4 24 -19 13 -15 26 -25 28 -22z m88 24 c0
-5 -2 -10 -4 -10 -3 0 -8 5 -11 10 -3 6 -1 10 4 10 6 0 11 -4 11 -10z m-420
-9 c0 -5 -7 -12 -16 -15 -14 -5 -15 -4 -4 9 14 17 20 19 20 6z m270 -1 c0 -5
-2 -10 -4 -10 -3 0 -8 5 -11 10 -3 6 -1 10 4 10 6 0 11 -4 11 -10z m200 0 c0
-5 -8 -10 -17 -10 -17 -1 -17 -1 0 -14 17 -13 24 -32 8 -22 -5 4 -11 3 -14 -1
-2 -5 -2 -2 -1 5 2 7 -4 16 -12 19 -14 5 -12 8 7 19 29 16 29 16 29 4z m-530
-4 c0 -3 -4 -8 -10 -11 -5 -3 -10 -1 -10 4 0 6 5 11 10 11 6 0 10 -2 10 -4z
m348 -10 c-2 -8 6 -22 17 -30 l20 -16 -20 7 c-25 8 -35 22 -28 40 7 17 15 17
11 -1z m-309 -39 c13 4 13 3 2 -5 -8 -6 -21 -8 -30 -4 -14 5 -13 2 2 -15 9
-11 17 -23 17 -28 0 -4 -9 2 -20 15 -11 12 -17 27 -14 31 3 5 0 9 -5 9 -6 0
-11 -5 -11 -12 0 -6 -2 -9 -5 -6 -3 3 -3 12 1 21 5 15 9 15 26 3 11 -8 28 -12
37 -9z m289 3 c7 -12 17 -18 22 -15 17 10 11 -2 -7 -16 -10 -7 -15 -9 -10 -4
4 4 -3 19 -15 32 -12 13 -17 23 -12 23 5 0 15 -9 22 -20z m-391 -12 c-3 -8 -6
-5 -6 6 -1 11 2 17 5 13 3 -3 4 -12 1 -19z m-42 -6 c-3 -3 -11 0 -18 7 -9 10
-8 11 6 5 10 -3 15 -9 12 -12z m165 -7 c-7 -9 -15 -13 -17 -11 -6 6 20 36 26
30 2 -2 -2 -10 -9 -19z m-153 -15 c-12 -18 -15 -19 -21 -5 -3 9 -2 13 4 10 6
-3 13 1 16 10 4 9 9 14 11 11 3 -3 -2 -14 -10 -26z m40 5 c-10 -7 -18 -16 -18
-19 1 -3 -8 -15 -19 -26 -11 -11 -20 -16 -20 -11 0 6 8 16 19 23 10 7 19 16
19 21 2 12 27 35 32 30 3 -2 -3 -11 -13 -18z m577 10 c-4 -8 -10 -12 -15 -9
-5 3 -9 -3 -10 -13 0 -13 -2 -14 -6 -4 -3 8 2 20 13 28 23 17 25 16 18 -2z
m-114 -8 c0 -5 -6 -7 -14 -4 -8 3 -22 -1 -33 -8 -28 -22 -39 -18 -12 4 24 20
59 24 59 8z m-423 -4 c-4 -3 2 -12 13 -20 11 -8 20 -19 20 -25 0 -7 -9 -2 -20
10 -12 12 -26 22 -33 22 -7 0 -6 4 3 10 17 11 26 13 17 3z m490 -13 c2 -21
-21 -28 -32 -10 -3 6 1 7 10 4 9 -4 15 -3 14 2 -2 11 0 24 4 24 1 0 3 -9 4
-20z m60 3 c-4 -3 -1 -13 6 -22 10 -14 10 -14 -5 -3 -9 8 -19 9 -22 4 -3 -6 1
-12 9 -16 17 -6 20 -26 4 -26 -5 0 -8 4 -5 9 8 13 -18 21 -35 10 -19 -12 -39
-11 -39 1 0 5 6 7 14 4 7 -3 26 6 42 20 26 23 48 37 31 19z m-496 -26 c-10 -9
-11 -8 -5 6 3 10 9 15 12 12 3 -3 0 -11 -7 -18z m354 6 c-2 -28 -15 -51 -31
-57 -11 -4 -9 2 5 20 11 14 17 32 14 40 -3 8 -1 14 5 14 5 0 8 -8 7 -17z
m-425 -4 c0 -5 -4 -7 -10 -4 -5 3 -10 1 -10 -6 0 -7 -3 -10 -6 -6 -8 7 4 27
17 27 5 0 9 -5 9 -11z m400 1 c0 -5 -5 -10 -11 -10 -5 0 -7 5 -4 10 3 6 8 10
11 10 2 0 4 -4 4 -10z m66 -8 c1 -7 0 -8 -3 -2 -2 5 -9 8 -14 4 -5 -3 -9 0 -9
6 0 15 23 7 26 -8z m-436 -27 c0 -5 -5 -3 -10 5 -5 8 -10 20 -10 25 0 6 5 3
10 -5 5 -8 10 -19 10 -25z m-70 15 c0 -5 -5 -10 -11 -10 -5 0 -7 5 -4 10 3 6
8 10 11 10 2 0 4 -4 4 -10z m140 6 c0 -3 -4 -8 -10 -11 -5 -3 -10 -1 -10 4 0
6 5 11 10 11 6 0 10 -2 10 -4z m-70 -52 c0 -4 -9 1 -20 11 -11 10 -20 23 -20
28 0 6 9 1 20 -11 11 -12 20 -24 20 -28z m35 27 c-8 -14 -25 -14 -25 0 0 5 5
7 10 4 6 -3 10 -1 10 6 0 7 3 10 6 6 3 -3 3 -10 -1 -16z m379 -3 c-5 -7 -9
-17 -10 -23 -1 -5 -5 -19 -9 -30 -6 -19 -6 -19 12 1 16 18 22 20 37 8 20 -14
13 -34 -12 -33 -14 0 -14 2 2 8 15 6 17 9 6 16 -9 5 -19 1 -31 -13 -23 -30
-28 -28 -24 9 4 26 2 29 -10 19 -24 -20 -17 -5 13 28 27 30 42 36 26 10z
m-471 -8 c-3 -11 0 -26 6 -34 8 -10 8 -16 -3 -25 -10 -9 -16 -9 -21 -1 -4 6
-4 14 -1 17 3 4 6 1 6 -6 0 -7 4 -9 10 -6 6 4 5 13 -2 24 -6 10 -8 26 -5 35 9
23 16 20 10 -4z m512 -8 c16 -20 16 -22 2 -16 -9 3 -17 10 -17 16 0 5 -4 6
-10 3 -6 -3 -7 1 -4 10 4 9 7 15 8 13 1 -2 10 -13 21 -26z m55 23 c0 -2 -9 -9
-19 -15 -14 -7 -22 -7 -27 2 -4 6 -3 8 4 4 6 -3 13 -2 17 4 6 10 25 14 25 5z
m-450 -15 c-13 -8 -12 -11 5 -25 20 -16 19 -16 -2 -5 -30 14 -29 40 1 40 6 0
4 -5 -4 -10z m-66 -33 c3 3 6 1 6 -5 0 -7 -3 -12 -7 -12 -11 0 -43 32 -43 43
0 6 8 0 19 -11 10 -12 21 -19 25 -15z m540 18 c3 -8 1 -15 -4 -15 -6 0 -10 5
-10 12 0 6 -11 1 -25 -12 -14 -13 -25 -21 -25 -17 0 8 42 47 51 47 4 0 9 -7
13 -15z m-499 -16 c11 -16 1 -19 -13 -3 -7 8 -8 14 -3 14 5 0 13 -5 16 -11z
m526 -8 c-9 -6 -10 -11 -2 -15 6 -4 11 -11 11 -17 0 -5 -8 -1 -18 9 -17 16
-11 32 13 32 6 0 4 -4 -4 -9z m-559 -42 c-12 -9 -18 -20 -14 -24 4 -4 -5 -1
-20 5 -23 11 -25 15 -13 26 18 19 31 18 15 -1 -17 -20 4 -20 24 1 9 8 16 21
17 27 0 7 3 6 6 -2 3 -8 -4 -22 -15 -32z m78 10 c0 -5 -5 -9 -11 -9 -5 0 -7 5
-4 10 3 6 1 10 -4 10 -6 0 -11 5 -11 11 0 8 5 8 15 -1 8 -7 15 -16 15 -21z
m470 -11 c45 -46 46 -50 24 -72 -23 -24 -30 -19 -8 5 18 21 18 21 -1 38 -31
26 -69 71 -61 71 4 0 25 -19 46 -42z m-506 5 c4 -10 4 -14 0 -11 -3 4 -17 -5
-30 -20 -15 -17 -22 -20 -18 -9 3 9 10 17 14 17 5 0 12 9 15 20 8 24 11 25 19
3z m482 -19 c19 -20 33 -38 31 -40 -4 -4 -47 34 -66 59 -24 30 -2 18 35 -19z
m-51 16 c3 -5 1 -10 -4 -10 -6 0 -11 5 -11 10 0 6 2 10 4 10 3 0 8 -4 11 -10z
m-46 -3 c-2 -1 -13 -9 -24 -17 -19 -14 -19 -14 -6 3 7 9 18 17 24 17 6 0 8 -1
6 -3z m18 -19 c-3 -8 -6 -5 -6 6 -1 11 2 17 5 13 3 -3 4 -12 1 -19z m-369 -32
c7 -51 6 -61 -8 -61 -8 0 -15 7 -15 15 0 8 -8 22 -17 31 -10 9 -18 20 -18 24
0 5 11 -2 25 -15 26 -25 36 -12 10 14 -8 8 -15 17 -15 20 0 11 37 -16 38 -28z
m358 -9 c-2 -7 -5 -4 -5 6 -1 10 -6 15 -11 12 -6 -4 -7 -11 -4 -17 4 -7 2 -8
-4 -4 -9 5 -8 12 0 26 11 17 14 17 21 4 5 -8 6 -20 3 -27z m69 23 c10 -11 13
-20 7 -20 -7 0 -12 4 -12 8 0 5 -10 14 -22 20 -16 7 -18 11 -7 11 9 1 24 -8
34 -19z m-525 -5 c0 -12 -19 -12 -23 0 -4 9 -1 12 9 8 7 -3 14 -7 14 -8z m500
-5 c8 -5 11 -10 5 -10 -5 0 -17 5 -25 10 -8 5 -10 10 -5 10 6 0 17 -5 25 -10z
m-470 -20 c0 -5 -7 -7 -15 -4 -8 4 -15 8 -15 10 0 2 7 4 15 4 8 0 15 -4 15
-10z m470 -6 c0 -2 -7 -4 -15 -4 -8 0 -15 4 -15 10 0 5 7 7 15 4 8 -4 15 -8
15 -10z m52 -1 c-6 -3 -10 -9 -6 -14 3 -5 0 -9 -5 -9 -6 0 -11 4 -11 8 0 12
23 32 29 25 3 -3 0 -8 -7 -10z m-506 -8 c-3 -8 0 -15 6 -15 6 0 9 -3 5 -6 -10
-11 -26 6 -20 21 3 8 7 15 10 15 3 0 3 -7 -1 -15z m471 -7 c-3 -8 -6 -5 -6 6
-1 11 2 17 5 13 3 -3 4 -12 1 -19z m-502 1 c11 -16 1 -19 -13 -3 -7 8 -8 14
-3 14 5 0 13 -5 16 -11z m600 1 c-3 -5 -12 -10 -18 -10 -7 0 -6 4 3 10 19 12
23 12 15 0z m-115 -7 c0 -5 -5 -15 -10 -23 -7 -12 -9 -10 -7 8 1 19 17 33 17
15z m93 -23 c9 -11 13 -20 7 -20 -5 0 -13 7 -18 16 -8 14 -12 13 -28 -9 -17
-21 -22 -23 -38 -11 -20 14 -13 34 12 33 14 0 14 -2 -2 -8 -16 -6 -17 -9 -6
-16 9 -6 19 -1 29 13 20 27 23 27 44 2z m37 10 c0 -5 -8 -10 -17 -10 -15 0
-16 2 -3 10 19 12 20 12 20 0z m-548 -34 c21 -37 19 -47 -5 -35 -32 17 -35 23
-9 14 22 -6 22 -5 10 14 -7 12 -16 21 -21 21 -4 0 -5 -6 -1 -12 5 -8 1 -8 -12
2 -10 8 -20 15 -22 16 -2 1 9 2 23 2 16 0 30 -9 37 -22z m40 17 c-6 -2 -10 -9
-6 -14 3 -5 0 -9 -5 -9 -12 0 -14 13 -4 23 3 4 11 7 17 6 6 0 5 -3 -2 -6z
m463 -30 c3 -10 1 -19 -4 -21 -6 -2 -9 -8 -5 -13 3 -5 -2 -12 -10 -15 -9 -3
-13 -11 -9 -17 4 -6 15 1 28 17 l22 28 27 -27 c22 -22 23 -25 7 -20 -13 4 -24
-1 -35 -16 -9 -13 -19 -20 -22 -16 -4 4 4 15 17 26 19 16 22 22 12 32 -11 11
-13 10 -13 -2 0 -8 -10 -20 -21 -28 -18 -11 -23 -11 -30 1 -6 8 -3 17 8 26 9
6 13 12 9 12 -5 0 -3 7 4 15 7 8 9 15 4 15 -4 0 -18 -12 -29 -26 -20 -25 -21
-25 -35 -8 -14 17 -13 18 2 6 14 -11 19 -9 34 17 21 35 29 38 39 14z m-55 -19
c0 -2 -9 0 -20 6 -11 6 -20 13 -20 16 0 2 9 0 20 -6 11 -6 20 -13 20 -16z m96
18 c6 -4 16 -18 23 -32 12 -24 11 -24 -4 -5 -8 11 -23 26 -32 33 -18 13 -6 17
13 4z m-502 -17 c-4 -8 -8 -15 -10 -15 -2 0 -4 7 -4 15 0 8 4 15 10 15 5 0 7
-7 4 -15z m7 -32 c-12 -20 -14 -14 -5 12 4 9 9 14 11 11 3 -2 0 -13 -6 -23z
m509 -43 c0 -5 -10 -14 -22 -20 -21 -10 -21 -10 -6 3 10 8 15 17 11 20 -3 4
-1 7 5 7 7 0 12 -4 12 -10z m35 0 c3 -6 -1 -7 -9 -4 -18 7 -21 14 -7 14 6 0
13 -4 16 -10z m5 -38 c0 -13 -3 -12 -16 4 -15 19 -16 19 -9 -1 5 -15 3 -17 -6
-8 -6 6 -8 16 -5 22 9 14 36 2 36 -17z"/>
<path d="M792 2451 c-7 -4 -8 -12 -2 -21 6 -8 10 -11 10 -7 0 4 9 3 20 -3 11
-6 20 -7 20 -3 0 15 -37 41 -48 34z"/>
<path d="M790 2224 c0 -8 5 -12 10 -9 6 3 10 10 10 16 0 5 -4 9 -10 9 -5 0
-10 -7 -10 -16z"/>
<path d="M1280 2052 c0 -12 19 -26 26 -19 2 2 -2 10 -11 17 -9 8 -15 8 -15 2z"/>
<path d="M920 1719 c0 -5 5 -7 10 -4 6 3 10 8 10 11 0 2 -4 4 -10 4 -5 0 -10
-5 -10 -11z"/>
<path d="M876 1031 c-4 -7 -5 -15 -2 -18 9 -9 19 4 14 18 -4 11 -6 11 -12 0z"/>
</g>
</svg>
