<?xml version="1.0" standalone="no"?>
<!DOCTYPE svg PUBLIC "-//W3C//DTD SVG 20010904//EN"
 "http://www.w3.org/TR/2001/REC-SVG-20010904/DTD/svg10.dtd">
<svg version="1.0" xmlns="http://www.w3.org/2000/svg"
 width="192.000000pt" height="142.000000pt" viewBox="0 0 192.000000 142.000000"
 preserveAspectRatio="xMidYMid meet">

<g transform="translate(0.000000,142.000000) scale(0.100000,-0.100000)"
fill="#000000" stroke="none">
<path d="M147 1413 c-4 -3 -7 -19 -7 -35 l0 -28 850 0 850 0 2 -582 3 -583 38
-3 37 -3 0 620 0 621 -883 0 c-486 0 -887 -3 -890 -7z"/>
<path d="M1280 1151 c-157 -23 -242 -118 -242 -272 0 -144 59 -202 275 -269
172 -54 199 -79 162 -149 -17 -34 -26 -38 -103 -47 -67 -7 -190 14 -273 46
-27 11 -53 20 -57 20 -4 0 -5 -42 -2 -92 l5 -93 70 -24 c62 -22 87 -25 220
-25 108 -1 160 3 185 13 63 26 117 72 145 122 25 46 27 58 23 143 -2 78 -7 98
-27 128 -40 58 -107 95 -247 138 -174 53 -211 94 -143 162 l30 31 88 -7 c76
-6 183 -28 244 -51 15 -6 17 1 17 79 0 84 -1 86 -28 100 -74 38 -241 61 -342
47z"/>
<path d="M207 1133 c-4 -3 -7 -201 -7 -440 l0 -434 101 3 101 3 0 115 c-1 63
2 133 6 155 7 39 8 40 51 40 l44 0 83 -140 c45 -77 89 -148 96 -158 11 -16 27
-18 125 -15 l112 3 -96 155 c-52 85 -97 160 -99 165 -2 6 16 23 41 39 48 30
94 89 113 145 21 62 15 161 -14 219 -60 121 -155 152 -461 152 -104 0 -193 -3
-196 -7z m423 -186 c37 -18 56 -78 41 -127 -6 -22 -21 -45 -34 -52 -12 -6 -68
-14 -124 -16 l-103 -5 0 107 0 106 98 0 c57 0 107 -5 122 -13z"/>
</g>
</svg>
