<?xml version="1.0" encoding="UTF-8" standalone="no"?>
<!-- Created with Inkscape (http://www.inkscape.org/) -->

<svg
   width="210mm"
   height="297mm"
   viewBox="0 0 210 297"
   version="1.1"
   id="svg230"
   inkscape:export-filename="TestInkScape.svg"
   inkscape:export-xdpi="96"
   inkscape:export-ydpi="96"
   xmlns:inkscape="http://www.inkscape.org/namespaces/inkscape"
   xmlns:sodipodi="http://sodipodi.sourceforge.net/DTD/sodipodi-0.dtd"
   xmlns="http://www.w3.org/2000/svg"
   xmlns:svg="http://www.w3.org/2000/svg">
  <sodipodi:namedview
     id="namedview232"
     pagecolor="#ffffff"
     bordercolor="#000000"
     borderopacity="0.25"
     inkscape:showpageshadow="2"
     inkscape:pageopacity="0.0"
     inkscape:pagecheckerboard="0"
     inkscape:deskcolor="#d1d1d1"
     inkscape:document-units="mm"
     showgrid="false" />
  <defs
     id="defs227" />
  <g
     inkscape:label="Layer 1"
     inkscape:groupmode="layer"
     id="layer1">
    <rect
       style="fill:#000000;stroke-width:0.264583"
       id="rect286"
       width="94.823257"
       height="101.93501"
       x="25.060432"
       y="50.120865" />
    <path
       style="fill:#000000;stroke-width:0.264583"
       id="path404"
       d="m 54.719868,200.45459 c 1.706493,-2.92403 3.6103,-5.73513 5.564205,-8.49837 0.810017,-1.14553 1.612686,-2.29774 2.476321,-3.40341 0.915278,-1.17179 1.807466,-2.37247 2.857486,-3.42522 1.15652,-1.15953 2.492296,-2.12524 3.738444,-3.18786 1.654847,-0.91514 3.255788,-1.93539 4.964538,-2.74543 3.305164,-1.56684 7.031265,-2.76732 10.547871,-3.75693 1.750624,-0.49264 6.100704,-1.56287 8.093824,-1.80423 1.011478,-0.12249 2.036254,-0.0776 3.054382,-0.11646 2.816976,0.73242 3.398969,0.67661 5.979491,2.22398 0.29115,0.17458 0.42459,0.53511 0.68224,0.75617 1.12553,0.9657 2.33573,1.82982 3.45957,2.79749 2.52556,2.17462 3.57413,3.31648 5.86677,5.62826 2.52324,2.82396 5.01654,5.81828 6.3288,9.42565 0.75927,2.08724 0.79082,2.88235 1.16556,5.07929 0.0533,0.86483 0.17619,1.72817 0.15993,2.59448 -0.0594,3.16536 -0.97338,6.74693 -2.5767,9.49304 -0.34999,0.59946 -0.80149,1.13358 -1.20223,1.70037 -0.47754,0.46365 -0.89623,0.99687 -1.43263,1.39095 -1.94781,1.43099 -4.39618,2.12484 -6.77969,2.25723 -0.82268,0.0457 -1.66039,0.0863 -2.47109,-0.0609 -0.94462,-0.17145 -1.82718,-0.59006 -2.74077,-0.88509 -1.02906,-0.57992 -2.12498,-1.05459 -3.087166,-1.73976 -0.390731,-0.27824 -0.5667,-0.78093 -0.915321,-1.1104 -4.450442,-4.20597 -2.968397,-2.11095 -7.110113,-6.80338 -3.385899,-3.83612 -3.360587,-4.23586 -6.181458,-8.75503 -4.580649,-8.32164 -7.937595,-17.33711 -9.598443,-26.70494 -0.279556,-1.5768 -0.439033,-3.17254 -0.65855,-4.75882 -0.139205,-3.83214 -0.393007,-4.58729 0.362601,-8.36043 0.584306,-2.91773 1.751965,-5.81902 2.918386,-8.5291 1.536546,-3.57005 2.662118,-5.66463 4.398626,-9.09075 1.551985,-3.2969 3.485946,-6.45725 4.157826,-10.09159 0.161285,-0.87243 0.333852,-1.7696 0.234763,-2.65127 -0.347393,-3.09101 -1.455661,-3.60921 -3.460893,-6.05979 -1.273212,-1.02385 -2.453225,-2.17586 -3.819636,-3.07155 -6.965969,-4.56624 -12.576323,-6.97144 -20.809932,-8.20873 -2.511787,-0.37746 -5.052126,-0.68691 -7.591896,-0.65352 -2.469782,0.0325 -4.907375,0.56674 -7.361062,0.85012 -6.536293,1.90216 -12.008295,4.09241 -16.874741,9.01615 -1.21085,1.2251 -2.441323,2.5057 -3.218256,4.04303 -1.803162,3.56797 -1.309863,6.28358 -1.266247,10.08506 1.003372,4.01274 1.227067,6.04922 3.246241,9.6904 3.81787,6.88479 10.405749,12.28464 16.306073,17.30805 4.272463,3.54929 8.697997,6.91985 12.785855,10.68677 1.439957,1.3269 1.949751,1.87391 3.246821,3.19435 0.867711,1.03547 2.447573,2.0864 2.68469,3.50771 0.214053,1.28306 -0.223748,1.71779 -0.73542,3.00296 -3.661794,6.69332 -8.70108,12.49292 -13.686248,18.2203 -0.663138,0.74219 -1.326276,1.48437 -1.989415,2.22655 -0.522936,0.55933 -1.05437,1.11083 -1.568807,1.67798 -0.410099,0.45213 -0.861777,0.87424 -1.20441,1.37942 -0.605398,0.89259 -1.25848,2.49265 -1.55384,3.52409 -0.180998,0.63207 -0.274965,1.28588 -0.412448,1.92882 -0.06374,0.70949 -0.181975,1.41618 -0.191204,2.12847 -0.01143,0.88146 0.06336,1.76238 0.129411,2.64144 0.06805,0.90575 0.115019,1.81673 0.272764,2.71123 0.396057,2.24589 1.141529,4.59635 2.037979,6.6829 0.543269,1.26449 1.213941,2.47035 1.820908,3.70553 1.881457,3.44035 1.771232,3.31369 3.681865,6.53563 0.481724,0.81235 0.937535,1.64203 1.468773,2.42289 0.805733,1.18434 2.240063,3.05132 3.521835,3.79473 1.948637,1.13018 4.060862,1.95126 6.091293,2.92689 3.905093,0.54704 5.229918,1.06321 9.347279,0.0962 3.863739,-0.90741 8.050583,-3.08049 11.388762,-5.12815 1.74757,-1.07197 3.474947,-2.19707 5.055661,-3.50262 1.605777,-1.32625 2.980176,-2.91005 4.470265,-4.36507 4.025701,-4.50054 7.313406,-9.62266 9.936734,-15.0561 2.634055,-5.45567 4.525415,-11.24585 6.469815,-16.96828 2.06226,-6.28519 4.06399,-12.62523 6.9387,-18.5998 1.26277,-2.62445 1.56596,-3.00402 2.99489,-5.34799 1.11586,-1.45956 1.58931,-2.27843 3.05068,-3.41334 2.24678,-1.74485 4.95954,-2.75918 7.53826,-3.87715 1.03446,-0.44847 2.063,-0.91048 3.09449,-1.36572 1.05503,-0.477 2.12222,-0.92799 3.16509,-1.43101 1.35218,-0.65222 5.00354,-2.56821 6.35284,-3.32972 1.8695,-1.05511 3.62382,-2.09869 5.2991,-3.4485 0.79585,-0.64123 1.5139,-1.37342 2.27086,-2.06012 0.72717,-0.84225 1.4989,-1.64798 2.18151,-2.52673 2.61404,-3.36512 4.78619,-7.06752 6.88547,-10.76355 2.51154,-4.42189 1.91972,-3.38592 4.18707,-7.88978 1.74987,-3.47267 3.21535,-7.09077 4.4215,-10.78719 0.54694,-1.67617 1.24439,-4.09739 1.5266,-5.87065 0.14443,-0.90759 0.17623,-1.82955 0.26435,-2.74433 0.0138,-0.81678 0.10532,-1.63595 0.0415,-2.45034 -0.30445,-3.88385 -2.24603,-7.49873 -4.90954,-10.28107 -0.89595,-0.93592 -1.92206,-1.73792 -2.88309,-2.60688 -0.99803,-0.768557 -1.95684,-1.590916 -2.99407,-2.305667 -2.32635,-1.603062 -7.28596,-4.269843 -9.30416,-5.264044 -1.03432,-0.509524 -2.10032,-0.97019 -3.20434,-1.30271 -2.8775,-0.866677 -3.93349,-0.7034 -6.90748,-0.795459 -2.97202,0.600665 -5.1142,0.894757 -7.95543,2.033256 -3.62395,1.45214 -7.52475,3.941022 -10.56663,6.392135 -0.8561,0.689838 -1.64604,1.457965 -2.46905,2.186949 -1.49037,1.80517 -2.43464,2.69753 -3.40877,4.83875 -1.89672,4.16915 -2.06795,9.19439 -2.37399,13.68332 0.064,4.5716 -0.0372,4.35672 0.43721,8.99695 0.35706,3.49244 0.60583,5.62574 1.69882,9.02213 1.38995,4.31924 2.77599,6.79523 4.7697,10.91861 5.42362,10.5447 12.14486,20.34203 18.53996,30.30641 0.89412,1.42776 1.78958,2.85469 2.68238,4.28328 1.4144,2.26319 3.13921,4.99991 4.50585,7.32598 1.96401,3.34283 3.75437,6.78305 5.59158,10.19601 2.38732,4.17247 4.87316,8.28739 7.27097,12.45375 1.31335,2.28204 2.5746,4.47052 3.73361,6.83194 0.48539,0.98897 0.91383,2.00489 1.37075,3.00734 0.89722,2.0499 1.63831,4.17935 2.03252,6.38727 0.11535,0.64611 0.3005,1.64458 -0.0253,2.30331 -0.2209,0.44657 -0.60597,0.791 -0.90896,1.1865 -0.69652,0.56264 -1.35396,1.17745 -2.08956,1.68794 -2.73936,1.90106 -5.16219,3.05731 -8.28143,4.45037 -5.48619,2.45013 -11.16561,4.39916 -16.83704,6.36237 -2.70229,0.86068 -4.77713,1.55201 -7.45465,2.30441 -0.65533,0.18415 -3.10172,0.84486 -4.00214,0.93315 -1.28532,0.12604 -2.16425,-0.27353 -3.4558,-0.60652 -1.46613,-0.29807 -2.92357,-0.64266 -4.39839,-0.89421 -10.80739,-1.84336 -21.745085,-2.76913 -32.605834,-4.2185 -2.151505,-0.28712 -4.294288,-0.63617 -6.441432,-0.95426 -1.648069,-0.4163 -3.337534,-0.69389 -4.944203,-1.24891 -0.24252,-0.0838 -0.320688,-0.40178 -0.459282,-0.61771 -0.545634,-0.8501 -1.307915,-1.60914 -1.592175,-2.57846 -0.610709,-2.08249 0.08245,-4.68874 1.082386,-6.49333 0.647968,-1.1694 1.619348,-2.12769 2.429023,-3.19154 1.152864,-0.95653 2.21533,-2.03393 3.458597,-2.8696 1.363366,-0.9164 2.841479,-1.65702 4.325112,-2.36227 4.898636,-2.32861 10.160203,-3.65035 15.440495,-4.75617 -2.575528,-0.57529 3.681529,-0.16457 2.922212,-0.83521 -3.691996,-3.26082 -4.186772,-2.57764 -8.639042,-2.78086 -9.46634,-0.43207 -4.643589,-0.20354 -14.669908,-0.69869 -6.014326,-0.32298 -7.676975,-0.40579 -13.457608,-0.73918 -1.615043,-0.0931 -3.234213,-0.13416 -4.844661,-0.28745 -1.116464,-0.10627 -2.246341,-0.19635 -3.328582,-0.49053 -0.593167,-0.16123 -2.239304,-0.76085 -1.632331,-0.85796 1.572363,-0.25154 3.175812,0.238 4.763717,0.357 2.265283,-1.21092 4.470601,-2.5414 6.795846,-3.63275 6.449113,-3.0269 16.253034,-6.77967 22.771717,-9.18647 8.034742,-2.96655 15.891923,-5.64881 24.032523,-8.27881 3.1323,-1.01195 6.28478,-1.96033 9.42717,-2.94049 4.60444,-1.36372 8.14428,-2.46526 12.69011,-3.64187 2.70079,-0.69906 4.24204,-1.07344 6.91809,-1.37933 1.85355,-0.21188 2.46194,-0.16187 4.20858,-0.14828 -1.26941,-0.95342 2.72261,0.72777 2.07354,0.44728 -1.08583,-0.46926 -2.08904,-1.35506 -3.27177,-1.37425 -0.53738,-0.009 -0.59583,0.89793 -0.94581,1.30581 -0.66321,0.77292 -1.35214,1.52653 -2.08834,2.23028 -1.30631,1.24874 -2.68926,2.41475 -4.03389,3.62212 -5.34183,4.34442 -10.81921,8.52135 -16.39049,12.56676 -1.04896,0.76167 -6.03783,4.20557 -7.39107,5.42503 -0.52079,0.46929 -0.89679,1.07778 -1.34518,1.61667 0.28301,0.47311 0.3889,1.11571 0.84905,1.41934 1.72838,1.14046 3.6341,2.00321 5.5454,2.8 13.53854,5.64402 -6.80649,-4.00685 7.78114,2.55782 3.84878,1.73201 3.80263,0.6694 3.41534,2.69216 0.56814,0.8024 1.19498,1.56631 1.70442,2.40721 1.24863,2.06101 2.17554,4.6161 2.14635,7.05263 -0.0971,0.56542 -0.40503,1.02005 -0.84998,1.3805 -0.12373,0.10024 -0.54444,0.15822 -0.4105,0.24434 3.49567,2.24751 3.29485,2.65962 3.2062,0.82344 0.83786,-5.09059 2.10877,-10.10386 2.84943,-15.21307 0.58398,-4.02833 0.53902,-4.86283 0.74891,-8.85632 -0.6271,-3.87411 -0.52328,-5.05914 -2.27982,-8.63014 -2.46871,-5.01882 -6.90434,-9.23607 -10.77077,-13.18674 -6.69865,-7.2175 -12.59146,-15.24166 -17.13775,-23.99213 -0.99411,-1.91341 -1.85387,-3.89369 -2.78081,-5.84053 -1.77701,-3.43123 -2.69768,-7.2042 -4.211738,-10.73853 -0.674352,-1.57417 -1.104496,-3.35072 -2.262021,-4.61283 -1.562023,-1.70315 -3.6351,-2.88671 -5.651534,-4.01571 -6.789889,-3.80162 -8.942822,-4.16456 -15.751204,-6.3202 -6.521966,-1.68012 -13.157735,-3.38768 -19.927208,-3.60486 -1.699662,0.11701 -1.075004,-0.009 2.937031,2.44819 0.155589,0.0953 0.363289,-0.0344 0.544934,-0.0516 0,0 -3.13081,-2.29723 -3.13081,-2.29723 v 0 c -0.175926,-0.034 -0.662027,-0.22076 -0.527777,-0.10208 2.752672,2.43336 1.816346,2.64081 3.235333,2.22475 6.373603,-0.24026 12.677841,1.43537 18.818166,2.89259 2.227273,0.70178 4.470321,1.35532 6.681817,2.10533 3.785452,1.28381 7.286418,2.43037 10.148869,5.53401 1.169924,1.2685 1.637188,3.04185 2.339824,4.61796 1.58909,3.56456 2.619488,7.36318 4.400858,10.8496 2.30344,4.791 3.321,7.18882 6.08149,11.77727 1.10677,1.83966 2.3307,3.60662 3.53335,5.38508 1.1515,1.70284 2.30174,3.40823 3.52837,5.05777 2.15477,2.89767 3.90763,4.80191 6.25847,7.49014 3.91231,3.98029 8.35261,8.04785 10.89411,13.10204 1.79887,3.57734 1.66721,4.61542 2.30658,8.50518 -0.0553,1.43698 -0.0555,2.87713 -0.16583,4.31094 -0.50782,6.60156 -2.0307,13.11929 -4.08725,19.39799 -0.07,0.32984 -0.4632,0.76674 -0.21009,0.98954 1.04846,0.92293 2.3696,1.50433 3.65748,2.04507 0.1671,0.0702 0.30038,-0.20496 0.43434,-0.32701 0.50063,-0.45612 0.8783,-0.97033 0.97418,-1.65437 -0.10107,-2.55104 -1.1873,-5.31016 -2.50291,-7.45851 -0.53519,-0.87395 -1.18117,-1.67502 -1.77175,-2.51253 -3.84641,-2.86738 -4.86212,-4.05232 -8.82274,-5.80119 -0.75569,-0.33369 -7.11095,-2.64063 -8.05111,-2.78349 -0.29351,-0.0446 0.76142,0.86836 0.49286,0.74182 -0.46851,-0.22076 -0.76384,-0.69964 -1.14576,-1.04946 0.32804,-0.57695 0.54652,-1.23187 0.98414,-1.73086 1.49192,-1.70114 5.3647,-4.55933 6.87427,-5.73292 5.458,-4.24319 10.94843,-8.44589 16.57717,-12.4618 3.05406,-2.29038 4.38379,-3.08795 6.8548,-5.47862 0.44975,-0.43513 1.52126,-0.82557 1.25817,-1.39336 -1.19021,-2.56867 -2.99939,-2.89579 -5.15077,-2.96657 -2.34513,0.11317 -4.63632,0.34111 -6.92001,0.94134 -1.21665,0.31978 -2.4096,0.72484 -3.60406,1.1195 -2.84578,0.94029 -9.53197,3.32589 -11.92151,4.17101 -6.72415,2.38819 -13.44236,4.79306 -20.166642,7.18087 -12.137716,4.31014 -24.317074,8.52198 -36.379859,13.04012 -2.631046,0.98546 -5.236763,2.03728 -7.855143,3.05592 0.337556,1.24109 0.375484,2.60603 1.012669,3.72328 0.254733,0.44665 0.928976,0.47292 1.434399,0.56746 1.013214,0.18951 2.050481,0.22446 3.07993,0.2769 1.534427,0.0782 3.072082,0.0691 4.607819,0.11468 6.20069,0.18414 6.583616,0.22648 13.149154,0.51571 5.366702,0.32331 9.883701,0.52538 15.211282,1.11244 1.65767,0.18266 3.378988,1.2709 4.951624,0.71588 0.820399,-0.28953 -1.12749,-1.38512 -1.895094,-1.79459 -0.791432,-0.42218 -1.330685,3.4615 -2.49477,1.00873 -5.146249,1.33322 -10.297302,2.79064 -15.120363,5.07168 -1.513591,0.71584 -3.032487,1.44388 -4.43458,2.35905 -1.282158,0.83688 -2.388669,1.91611 -3.583004,2.87417 -0.856826,1.07434 -1.876872,2.03674 -2.570485,3.22302 -1.051764,1.79883 -1.880537,4.58501 -1.300903,6.71363 0.282088,1.03592 0.843785,2.06339 1.661176,2.7595 4.477646,3.81334 5.436957,3.48214 10.464527,4.59356 2.063705,0.25367 4.125201,0.52603 6.191118,0.76103 12.701126,1.44475 25.537955,2.49502 37.919145,5.85418 0.82341,0.21471 1.62915,0.51495 2.47024,0.64414 0.84819,0.13028 1.98878,-0.27009 2.74169,-0.50602 3.13481,-0.98233 6.18773,-2.20746 9.28297,-3.30236 5.60963,-2.10538 11.23362,-4.1737 16.78912,-6.41999 1.81218,-0.73273 3.6445,-1.42254 5.41416,-2.2527 2.68079,-1.25758 3.52974,-1.96182 5.79894,-3.5324 0.36513,-0.43253 0.83188,-0.79663 1.09539,-1.29759 0.38049,-0.72332 0.12045,-1.80059 -0.0359,-2.50352 -0.50701,-2.27893 -1.33143,-4.48014 -2.31411,-6.59298 -0.47841,-1.0188 -0.92623,-2.05254 -1.43524,-3.05641 -1.24049,-2.44652 -2.51592,-4.5552 -3.91279,-6.92615 -2.41963,-4.10691 -4.91692,-8.17112 -7.14888,-12.38546 -1.81382,-3.4296 -3.58528,-6.89293 -5.58997,-10.21715 -2.39987,-3.9795 -5.04711,-7.80839 -7.50165,-11.7534 -6.45655,-9.95959 -13.19212,-19.78295 -18.67443,-30.32839 -2.02067,-4.30647 -3.1335,-6.25746 -4.50718,-10.73241 -1.3131,-4.27762 -1.87389,-9.07036 -2.02514,-13.53256 -0.0486,-1.43505 0.023,-2.87164 0.0346,-4.30746 0.33456,-4.5163 0.5717,-9.26007 2.48198,-13.45426 1.0073,-2.21159 1.75885,-2.90032 3.27881,-4.79779 0.78709,-0.73971 1.53662,-1.52156 2.36129,-2.219143 3.10076,-2.622899 6.63966,-4.874596 10.43774,-6.344925 3.21138,-1.243206 4.6437,-1.305235 8.0095,-1.865336 1.1597,0.05235 2.32799,0.0067 3.47909,0.157038 3.49074,0.45585 3.27874,0.817041 6.51549,2.026179 0.17882,0.0668 0.39657,0.0059 0.56443,0.09679 3.09276,1.674585 3.52503,2.168234 6.30388,4.276201 0.93226,0.838809 1.92738,1.612623 2.79677,2.516426 2.61984,2.72354 4.47833,6.20151 4.84062,9.99418 0.0778,0.81405 0.0191,1.63539 0.0286,2.45309 -0.0744,0.90736 -0.0987,1.82023 -0.22322,2.72208 -0.25523,1.84851 -0.84054,4.14391 -1.36836,5.90978 -1.11298,3.72348 -2.56442,7.3354 -4.24382,10.83816 -0.65485,1.31613 -1.28109,2.64689 -1.96454,3.9484 -3.1776,6.05119 -6.78428,11.98189 -11.48491,16.97797 -0.74911,0.67689 -1.46277,1.39522 -2.24733,2.03069 -1.62785,1.31851 -3.39524,2.41271 -5.2031,3.46148 -3.0657,1.77845 -6.25166,3.34248 -9.51324,4.72743 -0.53743,0.22407 -5.2646,2.1881 -5.95831,2.50269 -1.51462,0.68686 -3.60089,1.67084 -4.94661,2.7118 -1.50432,1.16365 -1.92989,2.01526 -3.01095,3.54954 -0.4401,0.81134 -0.90882,1.60781 -1.32031,2.43403 -3.47564,6.97863 -5.64483,14.51928 -8.02994,21.91125 -1.24377,3.6782 -2.55042,7.71833 -4.007389,11.32037 -3.019504,7.46505 -6.911554,14.58037 -12.290861,20.62088 -1.489009,1.43885 -2.872126,2.99605 -4.467027,4.31655 -4.385511,3.63101 -10.902148,7.28382 -16.522684,8.40025 -4.226695,0.83957 -5.604303,0.25761 -9.571119,-0.4375 -0.913022,0.95715 -0.40599,0.67354 -2.323214,-1.30037 -1.236813,-1.27338 -2.326769,-3.04636 -3.254078,-4.52869 -1.971141,-3.1509 -1.930292,-3.18702 -3.800184,-6.55956 -0.584171,-1.21203 -1.232493,-2.39519 -1.752516,-3.63611 -1.829924,-4.36667 -2.590905,-9.12534 -1.999514,-13.82913 0.340609,-1.60648 0.36522,-2.13878 1.030229,-3.64299 1.212019,-2.74153 3.587057,-4.72028 5.287383,-7.13657 4.826852,-5.91877 9.921502,-11.66883 14.039713,-18.12074 0.322725,-0.62964 0.744836,-1.21756 0.968179,-1.8889 0.191743,-0.57637 0.08603,-1.78925 -0.18129,-2.34881 -0.135647,-0.28394 -0.400373,-0.4859 -0.61209,-0.7187 -0.640821,-0.70464 -1.24029,-1.26637 -1.929932,-1.94014 -1.364691,-1.33069 -2.007139,-1.97957 -3.490774,-3.31631 -4.267319,-3.84481 -8.87194,-7.28224 -13.319601,-10.91052 -5.978658,-5.02499 -12.294915,-10.17501 -16.173807,-17.11092 -2.12208,-3.79452 -2.241032,-5.40878 -3.31166,-9.59447 -0.06643,-3.78532 -0.563093,-6.34941 1.16691,-9.91765 0.740817,-1.52799 1.902045,-2.83244 3.06863,-4.06638 2.893427,-3.0605 5.991693,-5.12197 9.858099,-6.81385 2.143636,-0.93802 4.428593,-1.51254 6.642889,-2.26881 2.430332,-0.28053 4.844674,-0.81495 7.290998,-0.84157 4.567058,-0.0497 10.725298,1.0729 15.060718,2.42546 1.780254,0.5554 6.539341,2.39799 8.714608,3.94134 1.280951,0.90883 2.452166,1.96319 3.678248,2.94479 0.816364,0.99137 1.806014,1.86249 2.449094,2.97412 1.004314,1.73606 1.006086,3.48286 0.73124,5.38024 -0.528058,3.64541 -2.30637,6.90575 -3.790643,10.21856 -0.534308,1.10638 -3.952645,8.17436 -4.3873,9.11851 -0.691076,1.50116 -1.43243,2.98456 -1.997855,4.53742 -0.881325,2.42041 -1.545074,5.59064 -1.627516,8.16635 -0.0461,1.4404 0.166926,2.87744 0.250391,4.31617 0.250894,1.60879 0.448697,3.22676 0.752682,4.82636 1.421267,7.47886 3.79658,14.86525 7.019252,21.76417 0.802209,1.71732 1.735908,3.3701 2.603863,5.05515 0.962885,1.61562 1.822752,3.29727 2.888655,4.84687 0.94556,1.37463 2.035201,2.64702 3.131333,3.90488 1.709745,1.962 4.8784,5.2068 6.982864,6.80463 4.588686,3.48399 5.331056,3.75465 9.474206,6.02545 0.9601,0.28899 1.8907,0.70565 2.88028,0.86698 0.81929,0.13356 1.66248,0.07 2.4903,0.009 2.40448,-0.17864 5.03149,-0.92637 6.99752,-2.38113 0.55069,-0.40748 0.96673,-0.9709 1.45009,-1.45635 0.40391,-0.58863 0.86351,-1.14269 1.21173,-1.76589 1.47728,-2.64378 2.50017,-6.67414 2.58216,-9.68473 0.0239,-0.87821 -0.10397,-1.754 -0.15595,-2.63099 -0.34882,-2.25792 -0.3546,-2.99378 -1.1064,-5.14452 -1.31175,-3.75266 -3.92755,-6.7396 -6.53851,-9.65343 -2.26457,-2.2513 -3.52227,-3.57051 -5.96792,-5.70342 -1.10447,-0.96322 -2.19464,-1.95193 -3.39151,-2.7976 -1.98116,-1.39982 -4.02995,-2.70742 -6.126558,-3.92756 -0.976683,-0.56839 -2.00773,-1.0559 -3.074966,-1.42735 -0.989809,-0.3445 -2.042105,-0.47267 -3.063155,-0.70901 -0.990574,0.0784 -1.990985,0.0754 -2.971726,0.23525 -1.806337,0.29433 -6.262436,1.57077 -7.799033,2.04323 -5.420664,1.66673 -10.776532,3.59189 -15.651932,6.54519 -1.284589,1.05904 -2.660775,2.01587 -3.853765,3.17712 -1.072719,1.04419 -1.986169,2.24227 -2.917666,3.41417 -0.874284,1.09993 -1.664132,2.2644 -2.496032,3.39672 -2.018906,2.74799 -4.016142,5.51409 -6.132044,8.18907 0,0 3.241572,1.88668 3.241572,1.88668 z" />
  </g>
</svg>
